<svg width="125" height="37" viewBox="0 0 125 37" fill="none" xmlns="http://www.w3.org/2000/svg">
<g clip-path="url(#clip0_2847_9423)">
<path d="M114.81 0.209104H10.5085C10.1284 0.209104 9.75272 0.209104 9.37354 0.210942C9.05612 0.21278 8.74124 0.218119 8.42078 0.222613C7.72458 0.229875 7.03003 0.284166 6.34314 0.385012C5.65723 0.488055 4.99279 0.682319 4.37232 0.961235C3.75261 1.24251 3.18636 1.608 2.69412 2.04444C2.19929 2.47966 1.78681 2.98271 1.47254 3.53425C1.15741 4.08469 0.938896 4.67454 0.824548 5.28343C0.709112 5.89154 0.646995 6.50667 0.638754 7.12329C0.629133 7.40506 0.628117 7.68777 0.623047 7.96958V29.2119C0.628117 29.4973 0.629133 29.7737 0.638754 30.0592C0.646998 30.6758 0.709115 31.2909 0.824548 31.8989C0.938581 32.5082 1.15711 33.0984 1.47254 33.649C1.78667 34.1988 2.1992 34.6998 2.69412 35.1326C3.18449 35.571 3.75111 35.9367 4.37232 36.2158C4.99279 36.4955 5.65715 36.6909 6.34314 36.7955C7.03014 36.8956 7.72463 36.9499 8.42078 36.958C8.74124 36.9643 9.05612 36.9679 9.37354 36.9679C9.75271 36.9697 10.1284 36.9697 10.5085 36.9697H114.81C115.183 36.9697 115.561 36.9697 115.934 36.9679C116.25 36.9679 116.574 36.9643 116.89 36.958C117.585 36.9503 118.278 36.896 118.963 36.7955C119.652 36.6902 120.318 36.4948 120.942 36.2158C121.562 35.9365 122.129 35.5708 122.619 35.1326C123.112 34.6981 123.526 34.1975 123.844 33.649C124.157 33.098 124.373 32.5078 124.485 31.8989C124.601 31.2908 124.665 30.6758 124.678 30.0592C124.682 29.7737 124.682 29.4973 124.682 29.2119C124.69 28.878 124.69 28.546 124.69 28.2067V8.97295C124.69 8.6364 124.69 8.30254 124.682 7.96958C124.682 7.68777 124.682 7.40506 124.678 7.12326C124.665 6.50658 124.601 5.89159 124.485 5.28339C124.373 4.67486 124.156 4.08505 123.844 3.53421C123.204 2.4287 122.189 1.52883 120.942 0.961152C120.318 0.682918 119.652 0.488705 118.963 0.38493C118.278 0.283639 117.585 0.229329 116.89 0.222485C116.574 0.218 116.25 0.212614 115.934 0.210822C115.561 0.208984 115.183 0.208984 114.81 0.208984V0.209104Z" fill="#A6A6A6"/>
<path d="M9.28976 36.168C8.97332 36.168 8.66453 36.1644 8.35058 36.1581C7.7002 36.1506 7.05134 36.1005 6.40932 36.0082C5.81067 35.917 5.23074 35.7472 4.68865 35.5046C4.15154 35.264 3.66165 34.9484 3.23775 34.5701C2.80771 34.1962 2.44969 33.7626 2.17786 33.2864C1.90304 32.8072 1.71285 32.2934 1.61391 31.7631C1.50707 31.1933 1.44926 30.6172 1.44099 30.0396C1.4344 29.8458 1.42578 29.2003 1.42578 29.2003V7.96609C1.42578 7.96609 1.43496 7.33054 1.44104 7.14382C1.44896 6.56719 1.50643 5.99192 1.61296 5.423C1.71208 4.89126 1.90242 4.37604 2.17738 3.89519C2.44821 3.41933 2.80425 2.98539 3.23169 2.61018C3.65866 2.23142 4.15012 1.91427 4.68814 1.67032C5.22898 1.42846 5.80782 1.25992 6.40526 1.17033C7.04938 1.07709 7.7005 1.02668 8.35313 1.01952L9.29027 1.0083H116.024L116.972 1.01997C117.619 1.02678 118.264 1.07674 118.903 1.16943C119.506 1.26014 120.091 1.42986 120.638 1.67302C121.716 2.16465 122.593 2.94246 123.146 3.89743C123.417 4.37497 123.604 4.88598 123.702 5.41313C123.81 5.98672 123.87 6.56651 123.882 7.14787C123.886 7.40819 123.886 7.68781 123.886 7.96609C123.894 8.31079 123.894 8.63889 123.894 8.96967V28.2075C123.894 28.5414 123.894 28.8673 123.886 29.1958C123.886 29.4947 123.885 29.7685 123.881 30.0504C123.869 30.6214 123.81 31.1908 123.704 31.7541C123.607 32.2882 123.418 32.806 123.143 33.2892C122.869 33.7602 122.513 34.1901 122.088 34.5629C121.664 34.9433 121.173 35.2607 120.635 35.5028C120.089 35.7473 119.505 35.9177 118.903 36.0082C118.261 36.101 117.612 36.1511 116.961 36.1581C116.657 36.1644 116.339 36.168 116.029 36.168L114.903 36.1698L9.28976 36.168Z" fill="black"/>
<path d="M30.7645 18.8655C30.7744 18.0985 30.9781 17.3464 31.3568 16.6792C31.7354 16.012 32.2767 15.4515 32.9302 15.0497C32.515 14.4568 31.9674 13.9689 31.3306 13.6246C30.6939 13.2804 29.9857 13.0894 29.2623 13.0668C27.719 12.9048 26.2229 13.9902 25.4365 13.9902C24.6349 13.9902 23.4241 13.0829 22.1202 13.1097C21.2769 13.1369 20.455 13.3822 19.7346 13.8215C19.0142 14.2609 18.4199 14.8793 18.0095 15.6166C16.2322 18.6939 17.5579 23.2164 19.2605 25.7038C20.1123 26.9218 21.1079 28.2824 22.4106 28.2341C23.6853 28.1813 24.1614 27.4213 25.7001 27.4213C27.2245 27.4213 27.6712 28.2341 29.0003 28.2035C30.3681 28.1813 31.2299 26.98 32.0519 25.7505C32.6639 24.8826 33.1349 23.9234 33.4473 22.9084C32.6526 22.5723 31.9745 22.0097 31.4974 21.2908C31.0203 20.5718 30.7654 19.7284 30.7645 18.8655Z" fill="white"/>
<path d="M28.2541 11.4311C28.9999 10.5358 29.3674 9.38499 29.2784 8.22314C28.139 8.34282 27.0865 8.88739 26.3306 9.74835C25.961 10.169 25.678 10.6583 25.4976 11.1883C25.3173 11.7184 25.2431 12.2788 25.2795 12.8375C25.8494 12.8434 26.4132 12.7199 26.9285 12.4762C27.4438 12.2326 27.897 11.8753 28.2541 11.4311Z" fill="white"/>
<path d="M46.8779 25.1509H42.5278L41.4831 28.2356H39.6406L43.7609 16.8232H45.6752L49.7956 28.2356H47.9216L46.8779 25.1509ZM42.9783 23.7275H46.4265L44.7267 18.7214H44.6791L42.9783 23.7275Z" fill="white"/>
<path d="M58.6941 24.0755C58.6941 26.6611 57.3102 28.3223 55.2218 28.3223C54.6928 28.35 54.1666 28.2281 53.7036 27.9707C53.2406 27.7132 52.8595 27.3306 52.6039 26.8666H52.5643V30.9878H50.8564V19.9148H52.5096V21.2987H52.541C52.8084 20.8369 53.196 20.4563 53.6625 20.1972C54.129 19.9382 54.6571 19.8105 55.1904 19.8277C57.3021 19.8277 58.6941 21.497 58.6941 24.0755ZM56.9387 24.0755C56.9387 22.3909 56.0681 21.2834 54.7398 21.2834C53.4349 21.2834 52.5572 22.4142 52.5572 24.0755C52.5572 25.752 53.4349 26.8747 54.7398 26.8747C56.0681 26.8747 56.9387 25.7753 56.9387 24.0755Z" fill="white"/>
<path d="M67.8514 24.0755C67.8514 26.6611 66.4674 28.3223 64.379 28.3223C63.85 28.35 63.3239 28.2281 62.8609 27.9707C62.3979 27.7132 62.0167 27.3306 61.7611 26.8666H61.7216V30.9878H60.0137V19.9148H61.6668V21.2987H61.6982C61.9656 20.8369 62.3532 20.4562 62.8197 20.1972C63.2862 19.9382 63.8143 19.8105 64.3476 19.8277C66.4594 19.8277 67.8514 21.497 67.8514 24.0755ZM66.0959 24.0755C66.0959 22.3909 65.2253 21.2834 63.8971 21.2834C62.5921 21.2834 61.7144 22.4142 61.7144 24.0755C61.7144 25.7519 62.5921 26.8747 63.8971 26.8747C65.2253 26.8747 66.0959 25.7753 66.0959 24.0755H66.0959Z" fill="white"/>
<path d="M73.9041 25.0557C74.0306 26.1874 75.13 26.9305 76.6324 26.9305C78.0719 26.9305 79.1076 26.1874 79.1076 25.1669C79.1076 24.2811 78.483 23.7507 77.004 23.3872L75.5249 23.0309C73.4293 22.5247 72.4564 21.5447 72.4564 19.9544C72.4564 17.9853 74.1724 16.6328 76.6091 16.6328C79.0206 16.6328 80.6737 17.9853 80.7294 19.9544H79.0053C78.9021 18.8155 77.9606 18.128 76.5848 18.128C75.209 18.128 74.2675 18.8236 74.2675 19.8359C74.2675 20.6427 74.8688 21.1175 76.3398 21.4809L77.5972 21.7897C79.9387 22.3434 80.9115 23.284 80.9115 24.9533C80.9115 27.0884 79.2108 28.4256 76.5058 28.4256C73.9749 28.4256 72.2662 27.1198 72.1558 25.0556L73.9041 25.0557Z" fill="white"/>
<path d="M84.5976 17.9458V19.9149H86.1799V21.2674H84.5976V25.8544C84.5976 26.567 84.9145 26.899 85.61 26.899C85.7978 26.8957 85.9854 26.8826 86.1718 26.8595V28.2039C85.8591 28.2624 85.5413 28.2888 85.2232 28.2829C83.5386 28.2829 82.8817 27.6502 82.8817 26.0365V21.2674H81.6719V19.9149H82.8816V17.9458H84.5976Z" fill="white"/>
<path d="M87.0962 24.0755C87.0962 21.4576 88.638 19.8125 91.0424 19.8125C93.4548 19.8125 94.9895 21.4575 94.9895 24.0755C94.9895 26.7006 93.4629 28.3385 91.0424 28.3385C88.6228 28.3385 87.0962 26.7006 87.0962 24.0755ZM93.2493 24.0755C93.2493 22.2797 92.4263 21.2197 91.0424 21.2197C89.6585 21.2197 88.8364 22.2877 88.8364 24.0755C88.8364 25.8785 89.6585 26.9304 91.0424 26.9304C92.4263 26.9304 93.2492 25.8785 93.2492 24.0755H93.2493Z" fill="white"/>
<path d="M96.3975 19.9147H98.0264V21.3309H98.0659C98.1761 20.8886 98.4352 20.4977 98.7997 20.2239C99.1642 19.9502 99.6118 19.8102 100.067 19.8276C100.264 19.8269 100.46 19.8483 100.652 19.8913V21.4888C100.404 21.4129 100.145 21.3781 99.885 21.3856C99.6369 21.3756 99.3896 21.4193 99.16 21.5139C98.9304 21.6084 98.7239 21.7516 98.5549 21.9334C98.3858 22.1153 98.2581 22.3316 98.1805 22.5675C98.1029 22.8033 98.0773 23.0532 98.1054 23.3V28.2352H96.3975L96.3975 19.9147Z" fill="white"/>
<path d="M108.527 25.7915C108.297 27.3019 106.826 28.3385 104.944 28.3385C102.524 28.3385 101.021 26.7168 101.021 24.115C101.021 21.5051 102.532 19.8125 104.873 19.8125C107.175 19.8125 108.622 21.3938 108.622 23.9167V24.5018H102.746V24.605C102.718 24.9112 102.757 25.2197 102.858 25.51C102.959 25.8002 103.121 26.0656 103.333 26.2885C103.545 26.5114 103.801 26.6868 104.086 26.8028C104.371 26.9189 104.677 26.9731 104.984 26.9618C105.387 26.9996 105.792 26.9061 106.139 26.6953C106.485 26.4844 106.754 26.1674 106.905 25.7915L108.527 25.7915ZM102.754 23.3082H106.913C106.929 23.0328 106.887 22.7573 106.791 22.4989C106.695 22.2404 106.546 22.0047 106.354 21.8064C106.163 21.6081 105.932 21.4515 105.677 21.3466C105.422 21.2416 105.148 21.1905 104.873 21.1964C104.594 21.1947 104.319 21.2482 104.061 21.3536C103.804 21.4591 103.57 21.6145 103.373 21.8108C103.176 22.0071 103.02 22.2405 102.914 22.4975C102.807 22.7545 102.753 23.03 102.754 23.3082V23.3082Z" fill="white"/>
<path d="M42.7644 8.23278C43.1225 8.20709 43.4818 8.26118 43.8164 8.39116C44.151 8.52114 44.4526 8.72377 44.6995 8.98442C44.9463 9.24508 45.1322 9.55727 45.2438 9.89847C45.3554 10.2397 45.3898 10.6014 45.3447 10.9575C45.3447 12.7094 44.3978 13.7164 42.7644 13.7164H40.7837V8.23278H42.7644ZM41.6354 12.9409H42.6693C42.9251 12.9562 43.1812 12.9142 43.4188 12.8181C43.6564 12.722 43.8696 12.574 44.0428 12.3851C44.216 12.1962 44.3449 11.971 44.4202 11.726C44.4954 11.481 44.5151 11.2223 44.4777 10.9687C44.5123 10.7161 44.4907 10.459 44.4143 10.2158C44.3379 9.97254 44.2087 9.74922 44.0359 9.5618C43.863 9.37439 43.6509 9.22752 43.4146 9.13173C43.1784 9.03593 42.9238 8.99358 42.6693 9.00771H41.6354V12.9409Z" fill="white"/>
<path d="M46.3066 11.6457C46.2806 11.3737 46.3117 11.0994 46.3979 10.8401C46.4842 10.5809 46.6236 10.3426 46.8074 10.1404C46.9911 9.93823 47.2151 9.7767 47.4649 9.66617C47.7148 9.55563 47.985 9.49854 48.2582 9.49854C48.5314 9.49854 48.8015 9.55563 49.0514 9.66617C49.3012 9.7767 49.5252 9.93823 49.7089 10.1404C49.8927 10.3426 50.0321 10.5809 50.1184 10.8401C50.2046 11.0994 50.2357 11.3737 50.2097 11.6457C50.2362 11.9179 50.2055 12.1927 50.1195 12.4523C50.0335 12.712 49.8941 12.9508 49.7103 13.1533C49.5265 13.3559 49.3023 13.5178 49.0523 13.6285C48.8022 13.7393 48.5317 13.7965 48.2582 13.7965C47.9846 13.7965 47.7141 13.7393 47.4641 13.6285C47.214 13.5178 46.9898 13.3559 46.806 13.1533C46.6222 12.9508 46.4828 12.712 46.3968 12.4523C46.3108 12.1927 46.2801 11.9179 46.3066 11.6457ZM49.3697 11.6457C49.3697 10.7487 48.9667 10.2241 48.2595 10.2241C47.5496 10.2241 47.1503 10.7487 47.1503 11.6457C47.1503 12.5499 47.5496 13.0705 48.2595 13.0705C48.9667 13.0704 49.3697 12.5463 49.3697 11.6457H49.3697Z" fill="white"/>
<path d="M55.398 13.7164H54.5508L53.6955 10.6686H53.6309L52.7792 13.7164H51.94L50.7993 9.57812H51.6277L52.369 12.7359H52.43L53.2808 9.57812H54.0643L54.9151 12.7359H54.9798L55.7175 9.57812H56.5342L55.398 13.7164Z" fill="white"/>
<path d="M57.4937 9.57858H58.2798V10.236H58.3409C58.4444 9.99987 58.619 9.80194 58.8404 9.66978C59.0618 9.53762 59.3188 9.47781 59.5758 9.4987C59.7772 9.48356 59.9793 9.51392 60.1674 9.58753C60.3554 9.66114 60.5245 9.77612 60.662 9.92393C60.7996 10.0718 60.9021 10.2486 60.962 10.4415C61.022 10.6343 61.0377 10.8381 61.0082 11.0379V13.7168H60.1915V11.243C60.1915 10.5779 59.9025 10.2472 59.2985 10.2472C59.1618 10.2408 59.0253 10.2641 58.8984 10.3154C58.7715 10.3667 58.6573 10.4449 58.5634 10.5445C58.4696 10.6441 58.3983 10.7628 58.3547 10.8925C58.311 11.0222 58.2959 11.1598 58.3104 11.2959V13.7168H57.4937L57.4937 9.57858Z" fill="white"/>
<path d="M62.3096 7.96289H63.1263V13.7166H62.3096V7.96289Z" fill="white"/>
<path d="M64.2612 11.6453C64.2352 11.3733 64.2663 11.0989 64.3526 10.8397C64.4388 10.5804 64.5783 10.3421 64.7621 10.1399C64.9458 9.93775 65.1698 9.77622 65.4197 9.66568C65.6695 9.55515 65.9397 9.49805 66.2129 9.49805C66.4862 9.49805 66.7564 9.55515 67.0062 9.66568C67.2561 9.77622 67.4801 9.93775 67.6638 10.1399C67.8476 10.3421 67.9871 10.5804 68.0733 10.8397C68.1596 11.0989 68.1907 11.3733 68.1647 11.6453C68.1912 11.9175 68.1604 12.1923 68.0744 12.4519C67.9884 12.7116 67.849 12.9504 67.6651 13.1529C67.4813 13.3555 67.2572 13.5173 67.0071 13.6281C66.757 13.7389 66.4865 13.7961 66.2129 13.7961C65.9394 13.7961 65.6689 13.7389 65.4188 13.6281C65.1687 13.5173 64.9446 13.3555 64.7608 13.1529C64.5769 12.9504 64.4375 12.7116 64.3515 12.4519C64.2655 12.1923 64.2347 11.9175 64.2612 11.6453ZM67.3242 11.6453C67.3242 10.7483 66.9213 10.2237 66.2141 10.2237C65.5042 10.2237 65.1048 10.7483 65.1048 11.6453C65.1048 12.5495 65.5042 13.07 66.2141 13.07C66.9213 13.07 67.3242 12.5459 67.3242 11.6453H67.3242Z" fill="white"/>
<path d="M69.0249 12.5459C69.0249 11.801 69.5795 11.3715 70.5641 11.3105L71.685 11.2459V10.8887C71.685 10.4516 71.396 10.2048 70.8378 10.2048C70.3819 10.2048 70.066 10.3722 69.9753 10.6648H69.1847C69.2681 9.95396 69.9367 9.49805 70.8755 9.49805C71.913 9.49805 72.4981 10.0145 72.4981 10.8887V13.7162H71.7119V13.1346H71.6473C71.5162 13.3432 71.332 13.5133 71.1136 13.6274C70.8952 13.7416 70.6505 13.7957 70.4043 13.7844C70.2306 13.8024 70.055 13.7839 69.8889 13.73C69.7228 13.676 69.5698 13.5878 69.4398 13.4712C69.3099 13.3545 69.2058 13.2118 69.1343 13.0525C69.0629 12.8931 69.0256 12.7205 69.0249 12.5459ZM71.685 12.1923V11.8463L70.6745 11.9109C70.1046 11.949 69.8461 12.1429 69.8461 12.5077C69.8461 12.8802 70.1692 13.0969 70.6135 13.0969C70.7436 13.1101 70.8751 13.0969 71.0001 13.0583C71.1251 13.0196 71.241 12.9561 71.341 12.8717C71.441 12.7873 71.523 12.6837 71.5821 12.567C71.6412 12.4502 71.6762 12.3228 71.685 12.1923Z" fill="white"/>
<path d="M73.5713 11.6457C73.5713 10.3381 74.2435 9.5097 75.2891 9.5097C75.5477 9.49779 75.8044 9.55973 76.0291 9.6883C76.2538 9.81686 76.4373 10.0067 76.5581 10.2357H76.6191V7.96289H77.4358V13.7166H76.6532V13.0628H76.5886C76.4585 13.2902 76.2686 13.4777 76.0395 13.605C75.8105 13.7323 75.5509 13.7945 75.2891 13.7848C74.2363 13.7848 73.5713 12.9565 73.5713 11.6457ZM74.4149 11.6457C74.4149 12.5234 74.8287 13.0516 75.5206 13.0516C76.209 13.0516 76.6344 12.5158 76.6344 11.6493C76.6344 10.7868 76.2045 10.2434 75.5206 10.2434C74.8331 10.2434 74.4149 10.7751 74.4149 11.6457H74.4149Z" fill="white"/>
<path d="M80.8149 11.6457C80.7889 11.3737 80.82 11.0994 80.9062 10.8401C80.9925 10.5809 81.1319 10.3426 81.3157 10.1404C81.4994 9.93823 81.7234 9.7767 81.9732 9.66617C82.2231 9.55563 82.4933 9.49854 82.7665 9.49854C83.0397 9.49854 83.3098 9.55563 83.5597 9.66617C83.8095 9.7767 84.0335 9.93823 84.2172 10.1404C84.401 10.3426 84.5404 10.5809 84.6267 10.8401C84.7129 11.0994 84.744 11.3737 84.718 11.6457C84.7445 11.9179 84.7138 12.1927 84.6278 12.4523C84.5418 12.712 84.4024 12.9508 84.2186 13.1533C84.0348 13.3559 83.8106 13.5178 83.5606 13.6285C83.3105 13.7393 83.04 13.7965 82.7665 13.7965C82.4929 13.7965 82.2224 13.7393 81.9724 13.6285C81.7223 13.5178 81.4981 13.3559 81.3143 13.1533C81.1305 12.9508 80.9911 12.712 80.9051 12.4523C80.8191 12.1927 80.7884 11.9179 80.8149 11.6457ZM83.878 11.6457C83.878 10.7487 83.475 10.2241 82.7678 10.2241C82.0579 10.2241 81.6586 10.7487 81.6586 11.6457C81.6586 12.5499 82.0579 13.0705 82.7678 13.0705C83.475 13.0704 83.878 12.5463 83.878 11.6457Z" fill="white"/>
<path d="M85.814 9.57858H86.6002V10.236H86.6612C86.7647 9.99987 86.9393 9.80194 87.1607 9.66978C87.3821 9.53762 87.6391 9.47781 87.8961 9.4987C88.0975 9.48356 88.2997 9.51392 88.4877 9.58753C88.6757 9.66114 88.8448 9.77612 88.9823 9.92393C89.1199 10.0718 89.2224 10.2486 89.2824 10.4415C89.3423 10.6343 89.358 10.8381 89.3285 11.0379V13.7168H88.5118V11.243C88.5118 10.5779 88.2228 10.2472 87.6188 10.2472C87.4821 10.2408 87.3456 10.2641 87.2187 10.3154C87.0919 10.3667 86.9776 10.4449 86.8837 10.5445C86.7899 10.6441 86.7187 10.7628 86.675 10.8925C86.6313 11.0222 86.6162 11.1598 86.6307 11.2959V13.7168H85.814V9.57858Z" fill="white"/>
<path d="M93.9433 8.54785V9.597H94.8399V10.2849H93.9433V12.4128C93.9433 12.8463 94.1219 13.0361 94.5285 13.0361C94.6325 13.0358 94.7365 13.0295 94.8399 13.0173V13.6976C94.6932 13.7238 94.5446 13.7378 94.3956 13.7393C93.4874 13.7393 93.1257 13.4198 93.1257 12.6219V10.2849H92.4688V9.59696H93.1257V8.54785H93.9433Z" fill="white"/>
<path d="M95.9556 7.96289H96.7651V10.2434H96.8297C96.9383 10.0051 97.1177 9.80601 97.3435 9.67335C97.5693 9.5407 97.8305 9.48088 98.0915 9.50207C98.2918 9.49117 98.4921 9.52461 98.678 9.60001C98.8639 9.6754 99.0308 9.7909 99.167 9.93825C99.3031 10.0856 99.405 10.2612 99.4655 10.4525C99.5259 10.6437 99.5434 10.846 99.5167 11.0448V13.7166H98.6992V11.2463C98.6992 10.5853 98.3913 10.2505 97.8143 10.2505C97.6739 10.239 97.5327 10.2583 97.4006 10.3071C97.2684 10.3558 97.1486 10.4329 97.0493 10.5328C96.9501 10.6327 96.8739 10.7532 96.826 10.8856C96.7782 11.0181 96.7598 11.1594 96.7723 11.2997V13.7166H95.9556L95.9556 7.96289Z" fill="white"/>
<path d="M104.279 12.5989C104.168 12.9771 103.927 13.3043 103.599 13.5231C103.272 13.742 102.877 13.8386 102.485 13.7961C102.213 13.8033 101.942 13.7511 101.691 13.6431C101.441 13.5351 101.217 13.3739 101.035 13.1706C100.853 12.9674 100.718 12.727 100.638 12.4662C100.558 12.2054 100.537 11.9303 100.574 11.6601C100.537 11.3891 100.56 11.1135 100.639 10.8519C100.719 10.5903 100.854 10.3488 101.034 10.1438C101.215 9.93875 101.438 9.77501 101.688 9.66362C101.938 9.55222 102.208 9.49578 102.482 9.49812C103.633 9.49812 104.328 10.2848 104.328 11.5843V11.8693H101.406V11.915C101.393 12.0669 101.412 12.2197 101.462 12.3638C101.512 12.5079 101.591 12.6399 101.695 12.7515C101.798 12.8632 101.924 12.9519 102.064 13.012C102.204 13.0721 102.355 13.1022 102.508 13.1006C102.703 13.124 102.901 13.0888 103.076 12.9995C103.252 12.9102 103.397 12.7707 103.492 12.5989L104.279 12.5989ZM101.406 11.2652H103.496C103.506 11.1264 103.487 10.9868 103.441 10.8557C103.394 10.7245 103.32 10.6046 103.224 10.5037C103.128 10.4027 103.012 10.3229 102.884 10.2695C102.755 10.216 102.617 10.19 102.477 10.1932C102.336 10.1914 102.196 10.218 102.065 10.2712C101.934 10.3245 101.815 10.4034 101.715 10.5033C101.616 10.6032 101.537 10.7221 101.484 10.8529C101.43 10.9838 101.404 11.124 101.406 11.2652H101.406Z" fill="white"/>
</g>
<defs>
<clipPath id="clip0_2847_9423">
<rect width="124.067" height="36.7606" fill="white" transform="translate(0.623047 0.208984)"/>
</clipPath>
</defs>
</svg>
