<svg width="73" height="73" viewBox="0 0 73 73" fill="none" xmlns="http://www.w3.org/2000/svg">
<rect x="0.135254" y="0.633789" width="72" height="72" rx="36" fill="#F8F8F8"/>
<path d="M50.3101 29.209H47.3851V27.7965C47.3851 27.6307 47.3192 27.4718 47.202 27.3545C47.0848 27.2373 46.9258 27.1715 46.7601 27.1715C46.5953 27.1747 46.4382 27.2416 46.3217 27.3581C46.2051 27.4746 46.1383 27.6317 46.1351 27.7965V29.209H41.6726V24.709C41.6694 24.5442 41.6025 24.3871 41.486 24.2706C41.3694 24.1541 41.2123 24.0872 41.0476 24.084H31.4226C31.2578 24.0872 31.1007 24.1541 30.9842 24.2706C30.8676 24.3871 30.8008 24.5442 30.7976 24.709V29.209H26.4851V27.7965C26.4851 27.6307 26.4192 27.4718 26.302 27.3545C26.1848 27.2373 26.0258 27.1715 25.8601 27.1715C25.6953 27.1747 25.5382 27.2416 25.4217 27.3581C25.3051 27.4746 25.2383 27.6317 25.2351 27.7965V29.209H21.3726C21.2068 29.209 21.0478 29.2748 20.9306 29.392C20.8134 29.5093 20.7476 29.6682 20.7476 29.834V36.4465C20.7476 36.6122 20.8134 36.7712 20.9306 36.8884C21.0478 37.0056 21.2068 37.0715 21.3726 37.0715C21.5383 37.0715 21.6973 37.0056 21.8145 36.8884C21.9317 36.7712 21.9976 36.6122 21.9976 36.4465V30.459H49.6851V34.209H24.6851C24.5193 34.209 24.3603 34.2748 24.2431 34.392C24.1259 34.5093 24.0601 34.6682 24.0601 34.834C24.0601 34.9997 24.1259 35.1587 24.2431 35.2759C24.3603 35.3931 24.5193 35.459 24.6851 35.459H49.6851V47.334H21.9976V44.034C21.9976 43.8682 21.9317 43.7093 21.8145 43.592C21.6973 43.4748 21.5383 43.409 21.3726 43.409C21.2068 43.409 21.0478 43.4748 20.9306 43.592C20.8134 43.7093 20.7476 43.8682 20.7476 44.034V48.009C20.7476 48.1747 20.8134 48.3337 20.9306 48.4509C21.0478 48.5681 21.2068 48.634 21.3726 48.634H50.3101C50.4758 48.634 50.6348 48.5681 50.752 48.4509C50.8692 48.3337 50.9351 48.1747 50.9351 48.009V29.834C50.9351 29.6682 50.8692 29.5093 50.752 29.392C50.6348 29.2748 50.4758 29.209 50.3101 29.209ZM32.0476 25.384H40.4226V29.259H32.0476V25.384Z" fill="#EF6A1F"/>
<path d="M21.3727 42.2714C21.5374 42.2682 21.6946 42.2013 21.8111 42.0848C21.9276 41.9683 21.9945 41.8111 21.9977 41.6464V38.9214C21.9977 38.7556 21.9318 38.5967 21.8146 38.4794C21.6974 38.3622 21.5384 38.2964 21.3727 38.2964C21.2069 38.2964 21.048 38.3622 20.9307 38.4794C20.8135 38.5967 20.7477 38.7556 20.7477 38.9214V41.6339C20.746 41.717 20.761 41.7996 20.7916 41.8769C20.8223 41.9542 20.8681 42.0246 20.9263 42.0839C20.9845 42.1433 21.0539 42.1905 21.1306 42.2226C21.2072 42.2548 21.2895 42.2714 21.3727 42.2714Z" fill="#EF6A1F"/>
</svg>
