<svg width="73" height="73" viewBox="0 0 73 73" fill="none" xmlns="http://www.w3.org/2000/svg">
<rect x="0.317871" y="0.633789" width="72" height="72" rx="36" fill="#F8F8F8"/>
<g clip-path="url(#clip0_2980_3673)">
<path d="M36.3179 16.6338C25.2809 16.6338 16.3179 25.5969 16.3179 36.6338C16.3179 47.6707 25.2809 56.6338 36.3179 56.6338C47.3548 56.6338 56.3179 47.6707 56.3179 36.6338C56.3179 25.5969 47.3548 16.6338 36.3179 16.6338ZM36.3179 18.1723C46.5225 18.1723 54.7794 26.4292 54.7794 36.6338C54.7794 46.8384 46.5225 55.0953 36.3179 55.0953C26.1133 55.0953 17.8563 46.8384 17.8563 36.6338C17.8563 26.4292 26.1133 18.1723 36.3179 18.1723ZM36.3148 27.4184L24.7917 31.9415L25.6594 32.2846L28.5271 33.4107L24.4256 35.0215L28.3394 36.5599L24.4225 38.0984L28.3394 39.6369L24.4256 41.1753L36.3179 45.8492L48.2102 41.1769L44.2963 39.6384L48.2133 38.0999L44.2994 36.5615L48.2102 35.023L44.1086 33.4123L47.844 31.943L36.3148 27.4184ZM36.3179 28.7799L44.3733 31.943L36.3179 35.1107L28.2656 31.9415L36.3179 28.7799ZM30.6256 34.2384L36.3179 36.4723L42.0102 34.2384L44.004 35.0199L36.3179 38.0399L28.6317 35.0199L30.6256 34.2384ZM30.4409 37.3876L36.3179 39.6953L42.1948 37.3876L44.004 38.0969L41.9794 38.8938L36.3179 41.1169L30.7563 38.9323L28.6317 38.0969L30.4409 37.3892V37.3876ZM30.444 40.4646L36.3179 42.7723L42.1917 40.4646L44.004 41.1738L36.3179 44.1938L28.6317 41.1738L30.444 40.4661V40.4646Z" fill="#EF6A1F"/>
</g>
<defs>
<clipPath id="clip0_2980_3673">
<rect width="40" height="40" fill="white" transform="translate(16.3179 16.6338)"/>
</clipPath>
</defs>
</svg>
