<svg width="18" height="18" viewBox="0 0 18 18" fill="none" xmlns="http://www.w3.org/2000/svg">
<g clip-path="url(#clip0_3009_4139)">
<path d="M16.4354 8.05831V8.78613C16.4344 10.4738 15.8879 12.1159 14.8775 13.4676C13.867 14.8192 12.4466 15.8081 10.8283 16.2866C9.20989 16.7651 7.48019 16.7076 5.89714 16.1228C4.31408 15.5379 2.9625 14.457 2.04395 13.0412C1.12541 11.6255 0.689127 9.9507 0.800168 8.26673C0.911208 6.58275 1.56363 4.97978 2.66012 3.69689C3.75661 2.41399 5.23843 1.51991 6.88457 1.14799C8.53071 0.776062 10.253 0.946223 11.7945 1.63309" stroke="#EF6A1F" stroke-width="1.56522" stroke-linecap="round" stroke-linejoin="round"/>
<path d="M17.2182 1.74292L8.60954 10.3516L6.26172 8.00379" stroke="#EF6A1F" stroke-width="1.56522" stroke-linecap="round" stroke-linejoin="round"/>
</g>
<defs>
<clipPath id="clip0_3009_4139">
<rect width="18" height="17.2174" fill="white" transform="translate(0 0.17749)"/>
</clipPath>
</defs>
</svg>
