<svg width="25" height="26" viewBox="0 0 25 26" fill="none" xmlns="http://www.w3.org/2000/svg">
<path opacity="0.1" fill-rule="evenodd" clip-rule="evenodd" d="M0.19043 13.1788C0.19043 6.41139 5.67652 0.925293 12.444 0.925293C19.2114 0.925293 24.6975 6.41139 24.6975 13.1788C24.6975 19.9463 19.2114 25.4324 12.444 25.4324C5.67652 25.4324 0.19043 19.9463 0.19043 13.1788Z" fill="#434343"/>
<path fill-rule="evenodd" clip-rule="evenodd" d="M18.9791 13.1697C18.9791 13.6117 18.9341 14.053 18.8458 14.4832C18.7596 14.9032 18.6319 15.3156 18.4647 15.7097C18.3013 16.0969 18.0987 16.4701 17.8619 16.818C17.6287 17.1638 17.3599 17.4882 17.0648 17.7839C16.7689 18.0783 16.4434 18.3463 16.0978 18.5806C15.7487 18.8157 15.3751 19.018 14.9876 19.1822C14.5929 19.3485 14.1796 19.476 13.76 19.562C13.3292 19.6506 12.8862 19.6958 12.4436 19.6958C12.0007 19.6958 11.5577 19.6506 11.1276 19.562C10.7073 19.476 10.294 19.3485 9.89961 19.1822C9.5122 19.018 9.13818 18.8157 8.78907 18.5806C8.44347 18.3463 8.11797 18.0783 7.82278 17.7839C7.52729 17.4882 7.25857 17.1638 7.02498 16.818C6.78947 16.4701 6.5865 16.0969 6.42248 15.7097C6.25524 15.3156 6.12729 14.9032 6.04081 14.4832C5.95338 14.053 5.90869 13.6117 5.90869 13.1697C5.90869 12.7274 5.95335 12.2851 6.04084 11.8559C6.12732 11.4359 6.25527 11.0229 6.42251 10.6293C6.58652 10.2419 6.7895 9.86841 7.02501 9.52042C7.2586 9.17437 7.52731 8.85059 7.82281 8.55455C8.11799 8.26009 8.44349 7.99277 8.7891 7.75887C9.13821 7.52273 9.51223 7.32041 9.89963 7.15596C10.2941 6.98927 10.7073 6.86151 11.1276 6.77612C11.5578 6.68818 12.0007 6.64355 12.4436 6.64355C12.8862 6.64355 13.3292 6.68818 13.76 6.77612C14.1796 6.86154 14.5929 6.9893 14.9876 7.15596C15.3751 7.32038 15.7487 7.52273 16.0979 7.75887C16.4435 7.99277 16.769 8.26009 17.0648 8.55455C17.36 8.85059 17.6287 9.17437 17.8619 9.52042C18.0987 9.86841 18.3013 10.2419 18.4647 10.6293C18.6319 11.0229 18.7596 11.4359 18.8458 11.8559C18.9341 12.2851 18.9791 12.7274 18.9791 13.1697ZM10.0623 8.12882C8.50596 8.86271 7.34437 10.2948 6.98217 12.0206C7.1293 12.0219 9.45504 12.0512 12.1347 11.3403C11.1687 9.62651 10.1367 8.22795 10.0623 8.12882ZM12.5971 12.1984C9.72342 13.0575 6.96589 12.9957 6.86698 12.9919C6.86537 13.0518 6.8625 13.1098 6.8625 13.1697C6.8625 14.6014 7.40341 15.9066 8.29247 16.8936C8.29055 16.8907 9.81788 14.1849 12.8297 13.2124C12.9025 13.1882 12.9765 13.1665 13.0499 13.1455C12.9098 12.8288 12.7569 12.5114 12.5971 12.1984ZM16.1294 8.98698C15.1468 8.1218 13.8567 7.597 12.4436 7.597C11.9901 7.597 11.5501 7.65182 11.1285 7.75315C11.2121 7.86533 12.2604 9.25403 13.2149 11.0041C15.3208 10.2157 16.1157 9.00736 16.1294 8.98698ZM13.4303 14.069C13.4179 14.0731 13.4055 14.0766 13.3933 14.0811C10.1004 15.2274 9.02504 17.5375 9.0134 17.5627C9.96089 18.2985 11.1493 18.7424 12.4436 18.7424C13.2165 18.7424 13.9527 18.5853 14.6225 18.3008C14.5399 17.8138 14.2157 16.1071 13.4303 14.069ZM15.5623 17.7915C16.8155 16.9471 17.7055 15.6062 17.9538 14.053C17.8389 14.016 16.2775 13.5224 14.476 13.8108C15.2081 15.8197 15.5055 17.4557 15.5623 17.7915ZM13.6445 11.8345C13.774 12.1003 13.8995 12.3708 14.0153 12.6426C14.0565 12.7402 14.0967 12.8358 14.1359 12.9313C16.0532 12.6904 17.942 13.0958 18.0228 13.1123C18.01 11.7912 17.5368 10.5787 16.7537 9.6294C16.7431 9.64434 15.848 10.9359 13.6445 11.8345Z" fill="#434343"/>
</svg>
