<svg width="125" height="37" viewBox="0 0 125 37" fill="none" xmlns="http://www.w3.org/2000/svg">
<g clip-path="url(#clip0_2847_9422)">
<path d="M120.095 0.194824H5.21859C2.68081 0.194824 0.623535 2.2521 0.623535 4.78988V32.3602C0.623535 34.898 2.68081 36.9552 5.21859 36.9552H120.095C122.633 36.9552 124.69 34.898 124.69 32.3602V4.78988C124.69 2.2521 122.633 0.194824 120.095 0.194824Z" fill="black"/>
<path d="M120.095 0.929849C121.118 0.931031 122.099 1.3381 122.823 2.06175C123.547 2.78539 123.954 3.76652 123.955 4.78988V32.3602C123.954 33.3835 123.547 34.3647 122.823 35.0883C122.099 35.8119 121.118 36.219 120.095 36.2202H5.21859C4.19522 36.219 3.21411 35.812 2.4905 35.0883C1.76689 34.3647 1.35987 33.3836 1.35874 32.3602V4.78988C1.35986 3.76651 1.76687 2.78537 2.49048 2.06172C3.2141 1.33807 4.19522 0.931012 5.21859 0.929849H120.095ZM120.095 0.194824H5.21859C4.001 0.198388 2.8343 0.683653 1.97333 1.54462C1.11236 2.40559 0.627099 3.57229 0.623535 4.78988L0.623535 32.3602C0.627099 33.5778 1.11236 34.7445 1.97333 35.6054C2.8343 36.4664 4.001 36.9517 5.21859 36.9552H120.095C121.312 36.9517 122.479 36.4664 123.34 35.6054C124.201 34.7445 124.686 33.5778 124.69 32.3602V4.78988C124.686 3.57229 124.201 2.40559 123.34 1.54462C122.479 0.683653 121.312 0.198388 120.095 0.194824Z" fill="#A6A6A6"/>
<path d="M44.2014 9.60846C44.2181 9.94569 44.1659 10.2828 44.0482 10.5992C43.9305 10.9157 43.7496 11.2048 43.5165 11.4491C43.2553 11.72 42.9399 11.9327 42.5908 12.0733C42.2418 12.2139 41.8669 12.2792 41.4909 12.265C41.1125 12.2683 40.7372 12.196 40.3871 12.0523C40.037 11.9086 39.7192 11.6963 39.4523 11.428C39.1854 11.1597 38.9749 10.8407 38.833 10.4899C38.6911 10.139 38.6209 9.76336 38.6263 9.38496C38.6209 9.00654 38.6912 8.63086 38.8331 8.28C38.9749 7.92914 39.1855 7.61017 39.4524 7.34183C39.7192 7.07348 40.037 6.86118 40.3871 6.71739C40.7372 6.57359 41.1125 6.50122 41.4909 6.5045C41.88 6.50333 42.2652 6.58199 42.6227 6.73563C42.9547 6.87021 43.2502 7.08131 43.4852 7.35174L43.0005 7.83679C42.8158 7.6194 42.5836 7.44735 42.3219 7.33391C42.0601 7.22048 41.7758 7.16869 41.4909 7.18255C41.2041 7.18106 40.92 7.23748 40.6555 7.34841C40.391 7.45935 40.1516 7.62252 39.9517 7.82816C39.7517 8.0338 39.5954 8.27767 39.4919 8.54517C39.3885 8.81268 39.3401 9.09831 39.3496 9.38496C39.3428 9.81431 39.4636 10.236 39.6968 10.5966C39.9299 10.9572 40.2649 11.2405 40.6592 11.4105C41.0536 11.5804 41.4895 11.6295 41.9118 11.5514C42.334 11.4733 42.7235 11.2715 43.031 10.9717C43.3139 10.6668 43.478 10.2704 43.4932 9.85475H41.4909V9.19242H44.1628C44.188 9.32967 44.2009 9.46891 44.2014 9.60846Z" fill="white" stroke="white" stroke-width="0.153169" stroke-miterlimit="10"/>
<path d="M48.4375 7.30552H45.9264V9.05375H48.1907V9.71617H45.9264V11.4644H48.4375V12.142H45.2183V6.62793H48.4375V7.30552Z" fill="white" stroke="white" stroke-width="0.153169" stroke-miterlimit="10"/>
<path d="M51.4254 12.142H50.7163V7.30552H49.1763V6.62793H52.9654V7.30552H51.4254V12.142Z" fill="white" stroke="white" stroke-width="0.153169" stroke-miterlimit="10"/>
<path d="M55.707 12.142V6.62793H56.4151V12.142H55.707Z" fill="white" stroke="white" stroke-width="0.153169" stroke-miterlimit="10"/>
<path d="M59.5581 12.142H58.8491V7.30552H57.3091V6.62793H61.0982V7.30552H59.5581V12.142Z" fill="white" stroke="white" stroke-width="0.153169" stroke-miterlimit="10"/>
<path d="M68.2711 11.4293C67.7344 11.9644 67.0074 12.2648 66.2495 12.2648C65.4917 12.2648 64.7647 11.9644 64.228 11.4293C63.9625 11.1604 63.7537 10.8408 63.6142 10.4896C63.4747 10.1384 63.4072 9.76267 63.4158 9.38485C63.4072 9.00703 63.4747 8.63134 63.6142 8.28013C63.7537 7.92892 63.9625 7.60935 64.228 7.34042C64.4933 7.07507 64.8083 6.86464 65.155 6.72119C65.5017 6.57773 65.8733 6.50406 66.2485 6.5044C66.6237 6.50473 66.9952 6.57906 67.3416 6.72313C67.6881 6.8672 68.0027 7.07818 68.2675 7.344C68.5332 7.61222 68.7423 7.93108 68.8825 8.28165C69.0226 8.63223 69.0909 9.00738 69.0833 9.38485C69.0916 9.76264 69.024 10.1383 68.8845 10.4894C68.745 10.8406 68.5364 11.1602 68.2711 11.4293ZM64.7512 10.9676C65.1487 11.3644 65.6874 11.5873 66.2491 11.5873C66.8107 11.5873 67.3495 11.3644 67.747 10.9676C67.9508 10.7589 68.1102 10.511 68.2156 10.239C68.3209 9.96696 68.37 9.6764 68.3599 9.38485C68.37 9.0933 68.3209 8.80273 68.2156 8.5307C68.1102 8.25867 67.9508 8.01082 67.747 7.80213C67.3495 7.40531 66.8107 7.18243 66.2491 7.18243C65.6874 7.18243 65.1487 7.40531 64.7512 7.80213C64.5476 8.01098 64.3885 8.25888 64.2833 8.53089C64.1781 8.8029 64.129 9.09338 64.1391 9.38485C64.129 9.67631 64.1781 9.9668 64.2833 10.2388C64.3885 10.5108 64.5476 10.7587 64.7512 10.9676Z" fill="white" stroke="white" stroke-width="0.153169" stroke-miterlimit="10"/>
<path d="M70.0776 12.142V6.62793H70.9401L73.62 10.9174H73.6505L73.62 9.85476V6.62793H74.329V12.142H73.5894L70.7857 7.64472H70.7552L70.7857 8.70737V12.142H70.0776Z" fill="white" stroke="white" stroke-width="0.153169" stroke-miterlimit="10"/>
<path d="M63.2408 20.1849C62.4684 20.1878 61.7141 20.4195 61.0733 20.8508C60.4325 21.2821 59.9338 21.8935 59.6402 22.608C59.3466 23.3225 59.2714 24.1079 59.4238 24.8652C59.5763 25.6224 59.9498 26.3175 60.497 26.8627C61.0443 27.4078 61.7407 27.7786 62.4986 27.9282C63.2564 28.0779 64.0415 27.9996 64.7549 27.7033C65.4682 27.407 66.0778 26.906 66.5067 26.2635C66.9355 25.6211 67.1644 24.8659 67.1643 24.0935C67.1719 23.5768 67.0755 23.0639 66.8809 22.5853C66.6862 22.1067 66.3972 21.6721 66.0312 21.3074C65.6651 20.9428 65.2294 20.6555 64.7501 20.4626C64.2707 20.2698 63.7574 20.1753 63.2408 20.1849ZM63.2408 26.4624C62.7651 26.4963 62.2902 26.3863 61.878 26.1465C61.4657 25.9067 61.1352 25.5484 60.9294 25.1182C60.7237 24.6879 60.6522 24.2057 60.7243 23.7343C60.7965 23.2629 61.0089 22.8241 61.3339 22.4751C61.6589 22.1261 62.0815 21.883 62.5466 21.7775C63.0117 21.672 63.4977 21.709 63.9415 21.8836C64.3853 22.0582 64.7662 22.3624 65.0347 22.7566C65.3032 23.1507 65.4468 23.6166 65.4468 24.0935C65.4613 24.3948 65.4153 24.6959 65.3116 24.9792C65.2079 25.2624 65.0485 25.522 64.843 25.7428C64.6374 25.9635 64.3898 26.1409 64.1146 26.2645C63.8395 26.3881 63.5424 26.4554 63.2408 26.4624ZM54.6817 20.1849C53.9093 20.1878 53.155 20.4195 52.5142 20.8507C51.8733 21.282 51.3746 21.8935 51.081 22.608C50.7875 23.3224 50.7121 24.1079 50.8646 24.8651C51.0171 25.6224 51.3905 26.3175 51.9378 26.8626C52.485 27.4078 53.1815 27.7786 53.9393 27.9282C54.6971 28.0779 55.4823 27.9996 56.1957 27.7033C56.909 27.407 57.5186 26.906 57.9475 26.2635C58.3763 25.6211 58.6052 24.8659 58.6051 24.0935C58.6127 23.5769 58.5163 23.064 58.3217 22.5853C58.127 22.1067 57.838 21.6721 57.472 21.3075C57.1059 20.9428 56.6703 20.6555 56.1909 20.4626C55.7116 20.2698 55.1983 20.1753 54.6817 20.1849ZM54.6817 26.4624C54.206 26.4963 53.7311 26.3863 53.3189 26.1465C52.9066 25.9067 52.5761 25.5484 52.3703 25.1182C52.1646 24.6879 52.0931 24.2057 52.1652 23.7343C52.2374 23.2629 52.4498 22.8241 52.7748 22.4751C53.0998 22.1261 53.5224 21.883 53.9875 21.7775C54.4525 21.672 54.9386 21.709 55.3824 21.8836C55.8262 22.0582 56.2071 22.3624 56.4756 22.7566C56.7441 23.1507 56.8877 23.6166 56.8877 24.0935C56.9021 24.3948 56.8562 24.6959 56.7525 24.9792C56.6488 25.2624 56.4894 25.5221 56.2839 25.7428C56.0783 25.9636 55.8307 26.1409 55.5555 26.2645C55.2804 26.3881 54.9833 26.4554 54.6817 26.4624ZM44.5002 21.3842V23.0423H48.4682C48.4109 23.8201 48.0927 24.5557 47.565 25.13C47.1673 25.5353 46.6892 25.8527 46.1613 26.0618C45.6334 26.2709 45.0675 26.367 44.5002 26.344C43.3404 26.3283 42.2334 25.8565 41.4188 25.0308C40.6042 24.2051 40.1474 23.0918 40.1474 21.9319C40.1474 20.772 40.6042 19.6587 41.4188 18.833C42.2334 18.0073 43.3404 17.5355 44.5002 17.5198C45.6142 17.5053 46.689 17.9309 47.491 18.7042L48.6606 17.5346C48.1134 16.9929 47.4635 16.5658 46.7491 16.2785C46.0347 15.9912 45.2701 15.8495 44.5002 15.8616C43.6956 15.8498 42.8967 15.9982 42.1499 16.298C41.4032 16.5978 40.7235 17.0431 40.1503 17.6079C39.5772 18.1728 39.1221 18.8459 38.8114 19.5882C38.5008 20.3305 38.3408 21.1272 38.3408 21.9319C38.3408 22.7366 38.5008 23.5332 38.8114 24.2756C39.1221 25.0179 39.5772 25.691 40.1503 26.2559C40.7235 26.8207 41.4032 27.266 42.1499 27.5658C42.8967 27.8656 43.6956 28.0139 44.5002 28.0022C45.2864 28.0348 46.0705 27.8999 46.8005 27.6063C47.5306 27.3128 48.1898 26.8674 48.7346 26.2996C49.7018 25.2439 50.2173 23.8515 50.1708 22.4205C50.1746 22.073 50.1448 21.7259 50.0819 21.3842H44.5002ZM86.139 22.6722C85.9041 21.9642 85.4569 21.3457 84.8583 20.9007C84.2596 20.4557 83.5385 20.2057 82.7929 20.1849C82.2906 20.188 81.7943 20.2929 81.3338 20.4933C80.8733 20.6937 80.4582 20.9853 80.1136 21.3507C79.769 21.716 79.5021 22.1475 79.329 22.6189C79.1558 23.0903 79.0801 23.592 79.1063 24.0935C79.095 24.6074 79.1874 25.1183 79.378 25.5957C79.5685 26.0731 79.8533 26.5072 80.2154 26.872C80.5775 27.2369 81.0094 27.525 81.4853 27.7192C81.9612 27.9134 82.4714 28.0096 82.9854 28.0022C83.6293 28.0058 84.264 27.8494 84.8325 27.547C85.401 27.2447 85.8855 26.8059 86.2425 26.27L84.9101 25.3817C84.7104 25.7132 84.4281 25.9871 84.0907 26.1766C83.7532 26.3661 83.3724 26.4646 82.9854 26.4624C82.5872 26.4777 82.1936 26.3729 81.8556 26.1617C81.5177 25.9505 81.251 25.6426 81.0902 25.278L86.3167 23.1164L86.139 22.6722ZM80.809 23.9751C80.7906 23.6906 80.8291 23.4053 80.9223 23.1359C81.0155 22.8665 81.1615 22.6184 81.3517 22.4061C81.542 22.1937 81.7726 22.0215 82.0302 21.8994C82.2879 21.7773 82.5672 21.7079 82.852 21.6951C83.1486 21.6756 83.4443 21.7438 83.7024 21.8912C83.9604 22.0387 84.1693 22.2588 84.3031 22.5242L80.809 23.9751ZM76.5597 27.7653H78.2771V16.2762H76.5597V27.7653ZM73.7466 21.0584H73.6874C73.4263 20.7747 73.1076 20.55 72.7527 20.3994C72.3978 20.2487 72.0148 20.1756 71.6294 20.1849C70.6215 20.2277 69.6691 20.6583 68.9711 21.3866C68.2732 22.115 67.8835 23.0848 67.8835 24.0935C67.8835 25.1023 68.2732 26.0721 68.9711 26.8005C69.6691 27.5288 70.6215 27.9593 71.6294 28.0022C72.0163 28.0125 72.4009 27.9384 72.7563 27.785C73.1117 27.6316 73.4295 27.4026 73.6874 27.1139H73.7466V27.6765C73.7466 29.1719 72.9471 29.9714 71.659 29.9714C71.2297 29.9611 70.8131 29.8233 70.4625 29.5754C70.1118 29.3276 69.8428 28.9809 69.6899 28.5796L68.1945 29.2015C68.4763 29.8877 68.9566 30.4742 69.5739 30.8856C70.1911 31.2971 70.9171 31.515 71.659 31.5112C73.6726 31.5112 75.3752 30.3268 75.3752 27.4396V20.4217H73.7466V21.0584ZM71.7775 26.4624C71.1839 26.4121 70.6308 26.1407 70.2277 25.702C69.8247 25.2633 69.601 24.6893 69.601 24.0935C69.601 23.4978 69.8247 22.9238 70.2277 22.4851C70.6308 22.0464 71.1839 21.775 71.7775 21.7247C72.0728 21.7391 72.3622 21.8128 72.6285 21.9415C72.8947 22.0701 73.1323 22.251 73.3271 22.4735C73.5219 22.6959 73.6699 22.9553 73.7623 23.2362C73.8548 23.517 73.8897 23.8136 73.865 24.1083C73.8881 24.4011 73.8519 24.6956 73.7586 24.9741C73.6652 25.2526 73.5167 25.5094 73.3218 25.7292C73.1269 25.949 72.8897 26.1272 72.6244 26.2532C72.359 26.3792 72.071 26.4503 71.7775 26.4624ZM94.1839 16.2764H90.0748V27.7653H91.7894V23.4125H94.1839C94.6689 23.4391 95.1542 23.3665 95.6103 23.1992C96.0663 23.0319 96.4834 22.7734 96.8362 22.4395C97.1889 22.1055 97.4699 21.7032 97.6619 21.257C97.8539 20.8108 97.9529 20.3302 97.9529 19.8445C97.9529 19.3587 97.8539 18.8781 97.6619 18.4319C97.4699 17.9857 97.1889 17.5834 96.8362 17.2494C96.4834 16.9155 96.0663 16.657 95.6103 16.4897C95.1542 16.3224 94.6689 16.2498 94.1839 16.2764ZM94.2282 21.8136H91.7894V17.8754H94.2282C94.4902 17.87 94.7507 17.9169 94.9943 18.0134C95.238 18.1099 95.4599 18.2541 95.6472 18.4375C95.8344 18.6209 95.9831 18.8398 96.0847 19.0814C96.1862 19.323 96.2385 19.5824 96.2385 19.8445C96.2385 20.1066 96.1862 20.366 96.0847 20.6076C95.9831 20.8492 95.8344 21.0681 95.6472 21.2515C95.4599 21.4349 95.238 21.5791 94.9943 21.6756C94.7507 21.7721 94.4902 21.819 94.2282 21.8136ZM104.826 20.1637C104.2 20.1272 103.577 20.2741 103.034 20.5866C102.49 20.899 102.05 21.3634 101.766 21.9226L103.289 22.5582C103.44 22.2806 103.668 22.0531 103.947 21.9035C104.225 21.7538 104.541 21.6885 104.855 21.7156C105.29 21.6732 105.725 21.8049 106.063 22.082C106.401 22.359 106.615 22.7588 106.659 23.1937V23.312C106.108 23.0194 105.494 22.8671 104.87 22.8685C103.23 22.8685 101.559 23.7702 101.559 25.4552C101.575 25.8103 101.662 26.1586 101.816 26.4794C101.969 26.8002 102.185 27.087 102.451 27.3227C102.717 27.5585 103.028 27.7383 103.364 27.8517C103.701 27.9651 104.058 28.0096 104.412 27.9827C104.844 28.0081 105.274 27.9173 105.659 27.7197C106.044 27.5221 106.369 27.225 106.6 26.8593H106.659V27.7462H108.314V23.3416C108.314 21.3018 106.792 20.1637 104.826 20.1637ZM104.619 26.4602C104.057 26.4602 103.274 26.1795 103.274 25.4847C103.274 24.5979 104.249 24.2579 105.092 24.2579C105.639 24.2433 106.18 24.3761 106.659 24.6422C106.596 25.1406 106.354 25.5992 105.979 25.9334C105.605 26.2676 105.121 26.4548 104.619 26.4602ZM114.345 20.415L112.379 25.396H112.32L110.28 20.415H108.432L111.492 27.3767L109.748 31.2492H111.536L116.251 20.415H114.345ZM98.8989 27.7653H100.613V16.2764H98.8989V27.7653Z" fill="white"/>
<path d="M10.2133 7.12238C9.91197 7.4827 9.75981 7.94462 9.78801 8.4135V28.7384C9.75972 29.2073 9.9119 29.6693 10.2133 30.0295L10.2813 30.0958L21.667 18.7103V18.4417L10.2813 7.05566L10.2133 7.12238Z" fill="url(#paint0_linear_2847_9422)"/>
<path d="M25.4624 22.5068L21.6675 18.71V18.4414L25.4634 14.6455L25.5489 14.6943L30.0455 17.2492C31.3299 17.9789 31.3299 19.1729 30.0455 19.9031L25.5489 22.458L25.4624 22.5068Z" fill="url(#paint1_linear_2847_9422)"/>
<path d="M25.5489 22.4575L21.6675 18.5757L10.2139 30.0292C10.4756 30.26 10.8098 30.392 11.1586 30.4023C11.5074 30.4126 11.8488 30.3006 12.1237 30.0856L25.5489 22.4575Z" fill="url(#paint2_linear_2847_9422)"/>
<path d="M25.5489 14.694L12.1237 7.06588C11.8488 6.85092 11.5074 6.73888 11.1586 6.74919C10.8098 6.75949 10.4756 6.89149 10.2139 7.12231L21.6675 18.5759L25.5489 14.694Z" fill="url(#paint3_linear_2847_9422)"/>
<path opacity="0.2" d="M25.4634 22.3726L12.1237 29.9519C11.8594 30.1531 11.5368 30.2629 11.2046 30.2647C10.8725 30.2664 10.5488 30.1601 10.2823 29.9617L10.2139 30.0302L10.2819 30.0965L10.2823 30.096C10.5487 30.2945 10.8725 30.4009 11.2046 30.3991C11.5368 30.3973 11.8594 30.2875 12.1237 30.0862L25.5489 22.458L25.4634 22.3726Z" fill="black"/>
<path opacity="0.12" d="M10.2133 29.8961C9.91198 29.5358 9.75982 29.0739 9.78799 28.605V28.7392C9.7598 29.2081 9.91196 29.67 10.2133 30.0304L10.2818 29.9619L10.2133 29.8961Z" fill="black"/>
<path opacity="0.12" d="M30.045 19.7684L25.4629 22.3721L25.5485 22.4576L30.045 19.9027C30.3095 19.7879 30.5384 19.6043 30.7078 19.371C30.8773 19.1377 30.9811 18.8632 31.0084 18.5762C30.9515 18.8361 30.8349 19.0792 30.6676 19.2862C30.5004 19.4931 30.2872 19.6582 30.045 19.7684Z" fill="black"/>
<path opacity="0.25" d="M12.1232 7.20095L30.045 17.3836C30.2873 17.4937 30.5006 17.6589 30.6678 17.8659C30.8351 18.073 30.9517 18.3162 31.0084 18.5763C30.9813 18.2891 30.8775 18.0145 30.7081 17.7811C30.5386 17.5477 30.3096 17.364 30.045 17.2493L12.1232 7.06668C10.8388 6.33689 9.78809 6.94307 9.78809 8.41422V8.54849C9.78809 7.07743 10.8388 6.47125 12.1232 7.20095Z" fill="white"/>
</g>
<defs>
<linearGradient id="paint0_linear_2847_9422" x1="20.6573" y1="8.1992" x2="5.23406" y2="23.6224" gradientUnits="userSpaceOnUse">
<stop stop-color="#00A0FF"/>
<stop offset="0.00657" stop-color="#00A1FF"/>
<stop offset="0.2601" stop-color="#00BEFF"/>
<stop offset="0.5122" stop-color="#00D2FF"/>
<stop offset="0.7604" stop-color="#00DFFF"/>
<stop offset="1" stop-color="#00E3FF"/>
</linearGradient>
<linearGradient id="paint1_linear_2847_9422" x1="31.7178" y1="18.5762" x2="9.48056" y2="18.5762" gradientUnits="userSpaceOnUse">
<stop stop-color="#FFE000"/>
<stop offset="0.4087" stop-color="#FFBD00"/>
<stop offset="0.7754" stop-color="#FFA500"/>
<stop offset="1" stop-color="#FF9C00"/>
</linearGradient>
<linearGradient id="paint2_linear_2847_9422" x1="23.4399" y1="20.6849" x2="2.52476" y2="41.6" gradientUnits="userSpaceOnUse">
<stop stop-color="#FF3A44"/>
<stop offset="1" stop-color="#C31162"/>
</linearGradient>
<linearGradient id="paint3_linear_2847_9422" x1="7.32995" y1="0.356717" x2="16.6694" y2="9.69618" gradientUnits="userSpaceOnUse">
<stop stop-color="#32A071"/>
<stop offset="0.0685" stop-color="#2DA771"/>
<stop offset="0.4762" stop-color="#15CF74"/>
<stop offset="0.8009" stop-color="#06E775"/>
<stop offset="1" stop-color="#00F076"/>
</linearGradient>
<clipPath id="clip0_2847_9422">
<rect width="124.066" height="36.7606" fill="white" transform="translate(0.623535 0.194824)"/>
</clipPath>
</defs>
</svg>
