<svg width="25" height="26" viewBox="0 0 25 26" fill="none" xmlns="http://www.w3.org/2000/svg">
<path opacity="0.1" fill-rule="evenodd" clip-rule="evenodd" d="M0.303223 13.1788C0.303223 6.41139 5.78932 0.925293 12.5568 0.925293C19.3242 0.925293 24.8103 6.41139 24.8103 13.1788C24.8103 19.9463 19.3242 25.4324 12.5568 25.4324C5.78932 25.4324 0.303223 19.9463 0.303223 13.1788Z" fill="#434343"/>
<path fill-rule="evenodd" clip-rule="evenodd" d="M12.5573 6.64355C10.7824 6.64355 10.5597 6.65132 9.8626 6.68304C9.16686 6.7149 8.69197 6.82504 8.27643 6.98666C7.8466 7.15358 7.48198 7.37687 7.11873 7.74026C6.75521 8.10351 6.53192 8.46812 6.36445 8.89782C6.20243 9.31349 6.09215 9.78852 6.06083 10.484C6.02965 11.1811 6.02148 11.404 6.02148 13.1788C6.02148 14.9537 6.02938 15.1758 6.06097 15.8729C6.09296 16.5686 6.20311 17.0435 6.36459 17.459C6.53165 17.8889 6.75493 18.2535 7.11832 18.6167C7.48144 18.9803 7.84605 19.2041 8.27561 19.371C8.69142 19.5326 9.16645 19.6428 9.86205 19.6746C10.5592 19.7064 10.7818 19.7141 12.5565 19.7141C14.3315 19.7141 14.5536 19.7064 15.2507 19.6746C15.9464 19.6428 16.4218 19.5326 16.8377 19.371C17.2673 19.2041 17.6314 18.9803 17.9945 18.6167C18.3581 18.2535 18.5813 17.8889 18.7488 17.4592C18.9095 17.0435 19.0198 16.5685 19.0524 15.873C19.0838 15.1759 19.0919 14.9537 19.0919 13.1788C19.0919 11.404 19.0838 11.1812 19.0524 10.4841C19.0198 9.78839 18.9095 9.31349 18.7488 8.89796C18.5813 8.46812 18.3581 8.10351 17.9945 7.74026C17.631 7.37673 17.2675 7.15344 16.8372 6.98666C16.4206 6.82504 15.9455 6.7149 15.2497 6.68304C14.5526 6.65132 14.3307 6.64355 12.5553 6.64355H12.5573ZM11.971 7.82125C12.145 7.82098 12.3392 7.82125 12.5573 7.82125C14.3022 7.82125 14.509 7.82751 15.1981 7.85883C15.8353 7.88796 16.1811 7.99443 16.4115 8.08389C16.7165 8.20234 16.9339 8.34394 17.1625 8.57267C17.3912 8.80141 17.5328 9.01925 17.6515 9.32423C17.741 9.55433 17.8476 9.90015 17.8766 10.5373C17.9079 11.2263 17.9147 11.4332 17.9147 13.1773C17.9147 14.9214 17.9079 15.1284 17.8766 15.8173C17.8475 16.4545 17.741 16.8003 17.6515 17.0304C17.5331 17.3354 17.3912 17.5526 17.1625 17.7812C16.9337 18.0099 16.7166 18.1515 16.4115 18.2699C16.1814 18.3598 15.8353 18.466 15.1981 18.4951C14.5092 18.5265 14.3022 18.5333 12.5573 18.5333C10.8122 18.5333 10.6054 18.5265 9.91649 18.4951C9.2793 18.4657 8.93347 18.3593 8.70297 18.2698C8.39799 18.1514 8.18014 18.0098 7.95141 17.781C7.72267 17.5523 7.58108 17.335 7.46235 17.0299C7.3729 16.7998 7.26629 16.454 7.23729 15.8168C7.20598 15.1278 7.19971 14.9209 7.19971 13.1757C7.19971 11.4305 7.20598 11.2246 7.23729 10.5357C7.26643 9.89852 7.3729 9.55269 7.46235 9.32232C7.5808 9.01734 7.72267 8.7995 7.95141 8.57076C8.18014 8.34203 8.39799 8.20043 8.70297 8.08171C8.93333 7.99185 9.2793 7.88565 9.91649 7.85638C10.5194 7.82915 10.753 7.82098 11.971 7.81962V7.82125ZM16.0458 8.90638C15.6128 8.90638 15.2615 9.25724 15.2615 9.69034C15.2615 10.1233 15.6128 10.4746 16.0458 10.4746C16.4787 10.4746 16.83 10.1233 16.83 9.69034C16.83 9.25738 16.4787 8.90638 16.0458 8.90638ZM12.5573 9.82268C10.7039 9.82268 9.20118 11.3254 9.20118 13.1788C9.20118 15.0323 10.7039 16.5343 12.5573 16.5343C14.4108 16.5343 15.9129 15.0323 15.9129 13.1788C15.9129 11.3254 14.4108 9.82268 12.5573 9.82268ZM12.5573 11.0004C13.7603 11.0004 14.7357 11.9756 14.7357 13.1788C14.7357 14.3819 13.7603 15.3573 12.5573 15.3573C11.3541 15.3573 10.3789 14.3819 10.3789 13.1788C10.3789 11.9756 11.3541 11.0004 12.5573 11.0004Z" fill="#434343"/>
</svg>
