<svg width="115" height="97" viewBox="0 0 115 97" fill="none" xmlns="http://www.w3.org/2000/svg">
<path d="M15.6577 35.4386C18.2164 35.4386 20.3999 35.7283 22.208 36.3077C24.0161 36.887 25.5002 37.7077 26.6601 38.7699C27.8542 39.832 28.7241 41.1355 29.27 42.6805C29.8159 44.2013 30.0888 45.9152 30.0888 47.8222C30.0888 49.7051 29.7817 51.431 29.1677 53.0001C28.5877 54.545 27.6665 55.8727 26.4043 56.9831C25.1761 58.0935 23.6068 58.9625 21.6963 59.5902C19.8199 60.1937 17.5853 60.4954 14.9925 60.4954C12.4338 60.4954 10.2333 60.2299 8.39104 59.6988C6.58289 59.1436 5.08179 58.347 3.88773 57.309C2.72779 56.2468 1.87489 54.9675 1.32904 53.4708C0.783182 51.9742 0.510254 50.2603 0.510254 48.3291C0.510254 46.4462 0.800239 44.7203 1.38021 43.1512C1.9943 41.558 2.91543 40.1941 4.1436 39.0596C5.40589 37.9009 6.99228 37.0077 8.90278 36.3801C10.8133 35.7524 13.0649 35.4386 15.6577 35.4386ZM14.9413 38.7699C13.4402 38.7699 12.195 39.0113 11.2056 39.4941C10.2162 39.9527 9.41452 40.5924 8.80043 41.4131C8.18634 42.2339 7.74284 43.1995 7.46991 44.3099C7.2311 45.4203 7.11169 46.6273 7.11169 47.9308C7.11169 49.1619 7.2311 50.3327 7.46991 51.4431C7.70872 52.5535 8.13517 53.5312 8.74926 54.376C9.39746 55.2209 10.2674 55.8968 11.3591 56.4038C12.485 56.9107 13.9349 57.1641 15.7089 57.1641C17.1759 57.1641 18.4041 56.9348 19.3934 56.4762C20.4169 56.0175 21.2357 55.3899 21.8498 54.5933C22.4639 53.7967 22.8903 52.8553 23.1291 51.769C23.4021 50.6586 23.5385 49.4637 23.5385 48.1843C23.5385 46.9532 23.4191 45.7703 23.1803 44.6358C22.9415 43.5012 22.498 42.4994 21.8498 41.6304C21.2357 40.7614 20.3657 40.0734 19.2399 39.5665C18.1482 39.0354 16.7153 38.7699 14.9413 38.7699Z" fill="#585858"/>
<path d="M64.9366 60.2781V48.4739C64.9366 47.4601 64.7149 46.6635 64.2714 46.0841C63.8279 45.4806 63.0602 45.1789 61.9685 45.1789C61.3203 45.1789 60.6551 45.3117 59.9728 45.5772C59.3246 45.8186 58.7275 46.1807 58.1817 46.6635C57.6358 47.1463 57.1923 47.7256 56.8512 48.4015C56.51 49.0774 56.3394 49.8258 56.3394 50.6465V60.2781H50.5568V48.4739C50.5568 47.4601 50.335 46.6635 49.8915 46.0841C49.448 45.4806 48.6804 45.1789 47.5887 45.1789C46.9064 45.1789 46.224 45.3237 45.5417 45.6134C44.8935 45.879 44.2965 46.2773 43.7506 46.8083C43.2389 47.3394 42.8124 47.9912 42.4713 48.7636C42.1642 49.5119 42.0107 50.3568 42.0107 51.2983V60.2781H36.1769V51.1534C36.1769 49.7051 36.0404 48.4981 35.7675 47.5325C35.4946 46.5428 35.2046 45.7462 34.8975 45.1427C34.5223 44.4427 34.1129 43.8754 33.6694 43.4409L38.275 42.1373C38.6162 42.4029 38.9573 42.7288 39.2985 43.115C39.5714 43.4529 39.8443 43.8754 40.1173 44.3823C40.3902 44.8651 40.612 45.4203 40.7825 46.0479C41.6354 44.5996 42.8295 43.5616 44.3647 42.9339C45.934 42.2822 47.5887 41.9563 49.3286 41.9563C51.0685 41.9563 52.4161 42.2701 53.3713 42.8977C54.3607 43.5254 55.0942 44.334 55.5718 45.3237C56.4929 44.1168 57.6699 43.2598 59.1028 42.7529C60.5698 42.2218 62.105 41.9563 63.7085 41.9563C65.039 41.9563 66.1477 42.1132 67.0348 42.427C67.9559 42.7167 68.6723 43.1391 69.1841 43.6943C69.7299 44.2254 70.1223 44.8772 70.3611 45.6496C70.5999 46.3979 70.7193 47.2428 70.7193 48.1843V60.2781H64.9366Z" fill="#585858"/>
<path d="M92.9592 60.2781V48.5826C92.9592 47.5687 92.7033 46.76 92.1915 46.1566C91.6798 45.5289 90.8098 45.2151 89.5817 45.2151C88.797 45.2151 88.0294 45.36 87.2788 45.6496C86.5624 45.9152 85.9142 46.3135 85.3342 46.8445C84.7543 47.3756 84.2766 48.0274 83.9014 48.7998C83.5602 49.5481 83.3896 50.393 83.3896 51.3345V60.2781H77.5558V51.1534C77.5558 49.7051 77.4193 48.4981 77.1464 47.5325C76.8735 46.5428 76.5835 45.7462 76.2765 45.1427C75.9012 44.4427 75.4918 43.8754 75.0483 43.4409L79.6539 42.1373C79.9951 42.4029 80.3362 42.7288 80.6774 43.115C80.9503 43.4529 81.2233 43.8754 81.4962 44.3823C81.7691 44.8651 81.9909 45.4203 82.1614 46.0479C83.0485 44.5996 84.3278 43.5616 85.9995 42.9339C87.6712 42.2822 89.4282 41.9563 91.2704 41.9563C93.8973 41.9563 95.7908 42.5236 96.9507 43.6581C98.1448 44.7685 98.7418 46.2773 98.7418 48.1843V60.2781H92.9592Z" fill="#585858"/>
<path d="M110.554 60.423C108.746 60.423 107.364 60.0488 106.409 59.3005C105.454 58.528 104.976 57.5383 104.976 56.3313V42.246H110.81V55.9692C110.81 56.5245 110.929 56.8986 111.168 57.0917C111.407 57.2848 111.765 57.3814 112.243 57.3814C112.379 57.3814 112.516 57.3814 112.652 57.3814C112.823 57.3814 112.976 57.3693 113.113 57.3452C113.249 57.3452 113.403 57.3331 113.573 57.309L114.188 59.916C113.949 60.0126 113.642 60.0971 113.266 60.1695C112.959 60.2419 112.567 60.3023 112.089 60.3506C111.646 60.3988 111.134 60.423 110.554 60.423ZM107.995 34.2075C109.087 34.2075 109.923 34.4368 110.503 34.8955C111.083 35.3541 111.373 35.9456 111.373 36.6697C111.373 37.3939 111.066 37.9974 110.452 38.4802C109.872 38.963 109.002 39.2044 107.842 39.2044C106.75 39.2044 105.897 38.9751 105.283 38.5164C104.703 38.0336 104.413 37.4543 104.413 36.7784C104.413 36.03 104.703 35.4145 105.283 34.9317C105.897 34.4489 106.801 34.2075 107.995 34.2075Z" fill="#585858"/>
<path fill-rule="evenodd" clip-rule="evenodd" d="M57.823 80.066C53.9537 80.066 50.2473 79.3684 46.8228 78.0921C53.2912 83.27 61.4981 86.3664 70.4281 86.3664C84.9949 86.3664 97.6374 78.1271 103.949 66.0546H84.0271C78.377 74.5029 68.7497 80.066 57.823 80.066ZM82.3679 28.8169C76.5937 21.649 67.7439 17.0629 57.823 17.0629C53.9539 17.0629 50.2477 17.7604 46.8233 19.0366C53.2917 13.859 61.4983 10.7627 70.4281 10.7627C84.0677 10.7627 96.0201 17.9865 102.668 28.8169H82.3679Z" fill="url(#paint0_linear_2847_9393)"/>
<path fill-rule="evenodd" clip-rule="evenodd" d="M70.9766 8.71281C77.9303 8.71281 84.4869 10.3439 90.2536 13.229C81.497 5.5144 69.8771 0.814453 57.1278 0.814453C37.1198 0.814453 19.8934 12.3894 12.15 29.0257H34.6415C41.8175 16.8959 55.401 8.71281 70.9766 8.71281ZM33.4053 66.2634H11.1714C18.3627 84.0994 36.2277 96.7297 57.1278 96.7297C69.8785 96.7297 81.4996 92.0287 90.2565 84.3127C84.4891 87.1986 77.9314 88.8302 70.9766 88.8302C54.4545 88.8302 40.174 79.6224 33.4053 66.2634Z" fill="url(#paint1_linear_2847_9393)"/>
<defs>
<linearGradient id="paint0_linear_2847_9393" x1="78.9834" y1="111.629" x2="88.3722" y2="8.01271" gradientUnits="userSpaceOnUse">
<stop stop-color="#9F9F9F"/>
<stop offset="1" stop-color="#232323"/>
</linearGradient>
<linearGradient id="paint1_linear_2847_9393" x1="50.7141" y1="0.814453" x2="50.7141" y2="96.7297" gradientUnits="userSpaceOnUse">
<stop stop-color="#EF6A1F"/>
<stop offset="1" stop-color="#AC3E00"/>
</linearGradient>
</defs>
</svg>