<svg width="73" height="73" viewBox="0 0 73 73" fill="none" xmlns="http://www.w3.org/2000/svg">
<rect x="0.682617" y="0.633789" width="72" height="72" rx="36" fill="#F8F8F8"/>
<path fill-rule="evenodd" clip-rule="evenodd" d="M36.0574 51.6338V54.1338C36.0574 54.4788 36.3374 54.7588 36.6824 54.7588C37.0274 54.7588 37.3074 54.4788 37.3074 54.1338V51.6338C37.3074 51.2888 37.0274 51.0088 36.6824 51.0088C36.3374 51.0088 36.0574 51.2888 36.0574 51.6338ZM40.7461 50.73L42.4124 53.23C42.6036 53.5175 42.9924 53.595 43.2786 53.4038C43.5661 53.2125 43.6436 52.8238 43.4524 52.5375L41.7861 50.0375C41.5949 49.75 41.2061 49.6725 40.9186 49.8638C40.6324 50.055 40.5549 50.4438 40.7461 50.73ZM31.5786 50.0375L29.9124 52.5375C29.7211 52.8238 29.7986 53.2125 30.0861 53.4038C30.3724 53.595 30.7611 53.5175 30.9524 53.23L32.6186 50.73C32.8099 50.4438 32.7324 50.055 32.4461 49.8638C32.1586 49.6725 31.7699 49.75 31.5786 50.0375ZM25.1711 18.6988L25.1624 18.6913C24.9186 18.4475 24.5224 18.4488 24.2786 18.6925L20.0049 22.9888C19.9836 23.005 19.9624 23.0225 19.9436 23.0425L18.7336 24.2525C18.5874 24.3975 18.5286 24.5975 18.5574 24.7875V30.46C18.5574 30.625 18.6236 30.7838 18.7399 30.9013L19.7624 31.9238C20.0074 32.1675 20.4024 32.1675 20.6474 31.9238L21.0886 31.4825L23.9074 34.3013C23.3186 35.4725 23.5124 36.9363 24.4911 37.915L28.7274 42.1513C28.0086 42.885 28.0124 44.0625 28.7399 44.79C28.8924 44.9425 29.0674 45.065 29.2586 45.1563L29.1061 45.3075C28.7549 45.66 28.5574 46.1363 28.5574 46.6338C28.5574 47.1313 28.7549 47.6075 29.1061 47.96C29.8386 48.6913 31.0261 48.6913 31.7586 47.96L32.2761 47.4413C32.3674 47.6325 32.4899 47.8075 32.6424 47.96C33.3749 48.6913 34.5611 48.6913 35.2936 47.96L36.6824 46.5713L38.0711 47.96C38.8036 48.6913 39.9899 48.6913 40.7224 47.96C40.8749 47.8075 40.9974 47.6325 41.0886 47.4413L41.6061 47.96C42.3386 48.6913 43.5261 48.6913 44.2586 47.96C44.6099 47.6075 44.8074 47.1313 44.8074 46.6338C44.8074 46.1363 44.6099 45.66 44.2586 45.3075L44.1061 45.1563C44.2974 45.065 44.4724 44.9425 44.6249 44.79C45.3524 44.0625 45.3561 42.885 44.6374 42.1513L48.8736 37.915C49.8524 36.9363 50.0461 35.4725 49.4574 34.3013L52.2761 31.4825L52.7174 31.9238C52.9624 32.1675 53.3574 32.1675 53.6024 31.9238L54.6249 30.9013C54.7411 30.7838 54.8074 30.625 54.8074 30.46V24.7013C54.8074 24.6175 54.7911 24.5375 54.7611 24.4638L54.7599 24.4613C54.7299 24.3888 54.6849 24.32 54.6249 24.26L49.0861 18.6925C48.8424 18.4488 48.4461 18.4475 48.2024 18.6913C47.9574 18.9338 47.9561 19.33 48.1999 19.575L48.2361 19.6113L44.7624 23.085C44.5186 23.3288 44.5186 23.725 44.7624 23.9688L45.2049 24.4113L42.2199 27.3963C41.1636 27.0963 39.9811 27.3613 39.1511 28.1925L36.6824 30.6613L34.2136 28.1925C33.3836 27.3613 32.2011 27.0963 31.1449 27.3963L28.1599 24.4113L28.6024 23.9688C28.8461 23.725 28.8461 23.3288 28.6024 23.085L25.1349 19.6188L25.1711 19.5825C25.4149 19.3388 25.4149 18.9425 25.1711 18.6988ZM35.7986 31.545L33.3299 29.0763C32.5974 28.3438 31.4099 28.3438 30.6774 29.0763C30.6774 29.0763 27.4686 32.285 25.3749 34.3788C24.6424 35.1113 24.6424 36.2988 25.3749 37.0313L33.6511 45.3075C33.7686 45.425 33.9274 45.4913 34.0936 45.4913C34.2599 45.4913 34.4186 45.425 34.5349 45.3075C34.7799 45.0638 34.7799 44.6688 34.5349 44.4238L33.5986 43.4875C33.5849 43.4763 33.5711 43.4638 33.5586 43.45L31.8824 41.7738C31.6386 41.53 31.6386 41.1338 31.8824 40.89C32.1261 40.6463 32.5224 40.6463 32.7661 40.89L32.7674 40.8888L38.9549 47.0763C39.1986 47.32 39.5949 47.32 39.8386 47.0763C39.9561 46.9588 40.0224 46.8 40.0224 46.6338C40.0224 46.4675 39.9561 46.3088 39.8386 46.1913L35.4199 41.7725C35.1749 41.5288 35.1749 41.1325 35.4199 40.8888C35.6636 40.645 36.0599 40.645 36.3036 40.8888L42.4899 47.0763C42.7349 47.32 43.1299 47.32 43.3749 47.0763C43.4911 46.9588 43.5574 46.8 43.5574 46.6338C43.5574 46.4675 43.4911 46.3088 43.3749 46.1913L37.7199 40.5375C37.6836 40.5138 37.6486 40.485 37.6161 40.4525L36.7386 39.5625C36.4974 39.3163 36.4999 38.9213 36.7449 38.6788C36.9911 38.4363 37.3874 38.4388 37.6286 38.685L37.6374 38.6938C37.6399 38.6913 37.6411 38.6913 37.6424 38.6913L42.8561 43.9063C42.9736 44.0238 43.1324 44.0888 43.2986 44.0888C43.4636 44.0888 43.6236 44.0238 43.7399 43.9063C43.9849 43.6625 43.9849 43.2663 43.7399 43.0225L36.6824 35.9638L36.1774 36.4688C35.8261 36.8213 35.3486 37.0188 34.8524 37.0188C34.3549 37.0188 33.8774 36.8213 33.5261 36.4688C33.1749 36.1175 32.9774 35.64 32.9774 35.1438C32.9774 34.6463 33.1749 34.1688 33.5261 33.8175L35.7986 31.545ZM31.3786 44.8025L29.9899 46.1913C29.8736 46.3088 29.8074 46.4675 29.8074 46.6338C29.8074 46.8 29.8736 46.9588 29.9899 47.0763C30.2349 47.32 30.6299 47.32 30.8749 47.0763L32.2624 45.6875L31.3786 44.8025ZM34.9536 46.5325C34.6899 46.6688 34.3949 46.7413 34.0936 46.7413C33.8336 46.7413 33.5786 46.6875 33.3449 46.585C33.3436 46.6013 33.3424 46.6175 33.3424 46.6338C33.3424 46.8 33.4086 46.9588 33.5261 47.0763C33.7699 47.32 34.1661 47.32 34.4099 47.0763L34.9536 46.5325ZM29.6111 43.035C29.3799 43.28 29.3849 43.6663 29.6249 43.9063C29.7411 44.0238 29.9011 44.0888 30.0661 44.0888C30.2261 44.0888 30.3786 44.0288 30.4949 43.9188L29.6111 43.035ZM43.7536 41.2675L47.9899 37.0313C48.7224 36.2988 48.7224 35.1113 47.9899 34.3788L42.6874 29.0763C41.9549 28.3438 40.7674 28.3438 40.0349 29.0763L34.4099 34.7013C34.2924 34.8188 34.2274 34.9775 34.2274 35.1438C34.2274 35.3088 34.2924 35.4675 34.4099 35.585C34.5274 35.7025 34.6861 35.7688 34.8524 35.7688C35.0174 35.7688 35.1761 35.7025 35.2936 35.585C36.5836 34.295 39.1511 31.7275 39.1511 31.7275C39.3961 31.4838 39.7911 31.4838 40.0349 31.7275C40.7674 32.4588 41.9549 32.4588 42.6874 31.7275C42.9311 31.4838 43.3274 31.4838 43.5711 31.7275C43.8149 31.9713 43.8149 32.3675 43.5711 32.6113C42.5024 33.68 40.8511 33.8125 39.6374 33.0088L37.5661 35.08L43.7536 41.2675ZM43.4374 27.9463L44.5861 29.0963L46.2399 27.4413C46.4849 27.1975 46.8799 27.1975 47.1249 27.4413C47.3686 27.6863 47.3686 28.0813 47.1249 28.3263L45.4699 29.98C46.9661 31.4763 48.7399 33.25 48.7399 33.25L51.3924 30.5988L46.0886 25.295L43.4374 27.9463ZM28.7786 29.0963L29.9274 27.9463L27.2761 25.295L21.9724 30.5988L24.6249 33.25C24.6249 33.25 26.3986 31.4763 27.8949 29.98L26.2399 28.3263C25.9961 28.0813 25.9961 27.6863 26.2399 27.4413C26.4849 27.1975 26.8799 27.1975 27.1249 27.4413L28.7786 29.0963ZM49.1824 21.8325C48.1474 21.8325 47.3074 22.6725 47.3074 23.7075C47.3074 24.7425 48.1474 25.5825 49.1824 25.5825C50.2174 25.5825 51.0574 24.7425 51.0574 23.7075C51.0574 22.6725 50.2174 21.8325 49.1824 21.8325ZM33.4524 23.7875L30.9524 20.0375C30.7611 19.75 30.3724 19.6725 30.0861 19.8638C29.7986 20.055 29.7211 20.4438 29.9124 20.73L32.4124 24.48C32.6036 24.7675 32.9924 24.845 33.2786 24.6538C33.5661 24.4625 33.6436 24.0738 33.4524 23.7875ZM40.9524 24.48L43.4524 20.73C43.6436 20.4438 43.5661 20.055 43.2786 19.8638C42.9924 19.6725 42.6036 19.75 42.4124 20.0375L39.9124 23.7875C39.7211 24.0738 39.7986 24.4625 40.0861 24.6538C40.3724 24.845 40.7611 24.7675 40.9524 24.48ZM49.1824 23.0825C49.5274 23.0825 49.8074 23.3625 49.8074 23.7075C49.8074 24.0525 49.5274 24.3325 49.1824 24.3325C48.8374 24.3325 48.5574 24.0525 48.5574 23.7075C48.5574 23.3625 48.8374 23.0825 49.1824 23.0825ZM37.3074 22.8838V19.1338C37.3074 18.7888 37.0274 18.5088 36.6824 18.5088C36.3374 18.5088 36.0574 18.7888 36.0574 19.1338V22.8838C36.0574 23.2288 36.3374 23.5088 36.6824 23.5088C37.0274 23.5088 37.3074 23.2288 37.3074 22.8838Z" fill="#EF6A1F"/>
</svg>
