<svg width="73" height="73" viewBox="0 0 73 73" fill="none" xmlns="http://www.w3.org/2000/svg">
<rect x="0.864746" y="0.633789" width="72" height="72" rx="36" fill="#F8F8F8"/>
<path d="M22.2916 39.3057C21.5615 39.3057 20.9673 39.8994 20.9673 40.6293C20.9673 41.3592 21.5615 41.9529 22.2916 41.9529C23.0217 41.9529 23.6159 41.3592 23.6159 40.6293C23.6159 39.8994 23.0217 39.3057 22.2916 39.3057ZM22.2916 41.0154C22.0783 41.0154 21.9048 40.8421 21.9048 40.6293C21.9048 40.4164 22.0783 40.2432 22.2916 40.2432C22.5049 40.2432 22.6784 40.4164 22.6784 40.6293C22.6784 40.8421 22.5049 41.0154 22.2916 41.0154ZM45.6743 45.0043C44.9442 45.0043 44.3505 45.598 44.3505 46.3277C44.3505 47.0576 44.9442 47.6513 45.6743 47.6513C46.4044 47.6513 46.9986 47.0576 46.9986 46.3277C46.9986 45.598 46.4044 45.0043 45.6743 45.0043ZM45.6743 46.7138C45.4615 46.7138 45.288 46.5405 45.288 46.3277C45.288 46.1148 45.4615 45.9418 45.6743 45.9418C45.8876 45.9418 46.0611 46.1148 46.0611 46.3277C46.0611 46.5405 45.8876 46.7138 45.6743 46.7138ZM45.6743 53.3499C46.4044 53.3499 46.9986 52.7562 46.9986 52.0263C46.9986 51.2964 46.4044 50.7027 45.6743 50.7027C44.9442 50.7027 44.3505 51.2964 44.3505 52.0263C44.3505 52.7562 44.9442 53.3499 45.6743 53.3499ZM45.6743 51.6402C45.8876 51.6402 46.0611 51.8134 46.0611 52.0263C46.0611 52.2392 45.8876 52.4124 45.6743 52.4124C45.4615 52.4124 45.288 52.2392 45.288 52.0263C45.288 51.8134 45.4615 51.6402 45.6743 51.6402ZM22.2916 45.0043C21.5615 45.0043 20.9673 45.598 20.9673 46.3277C20.9673 47.0576 21.5615 47.6513 22.2916 47.6513C23.0217 47.6513 23.6159 47.0576 23.6159 46.3277C23.6159 45.598 23.0217 45.0043 22.2916 45.0043ZM22.2916 46.7138C22.0783 46.7138 21.9048 46.5405 21.9048 46.3277C21.9048 46.1148 22.0783 45.9418 22.2916 45.9418C22.5049 45.9418 22.6784 46.1148 22.6784 46.3277C22.6784 46.5405 22.5049 46.7138 22.2916 46.7138ZM22.2916 53.3499C23.0217 53.3499 23.6159 52.7562 23.6159 52.0263C23.6159 51.2964 23.0217 50.7027 22.2916 50.7027C21.5615 50.7027 20.9673 51.2964 20.9673 52.0263C20.9673 52.7562 21.5615 53.3499 22.2916 53.3499ZM22.2916 51.6402C22.5049 51.6402 22.6784 51.8134 22.6784 52.0263C22.6784 52.2392 22.5049 52.4124 22.2916 52.4124C22.0783 52.4124 21.9048 52.2392 21.9048 52.0263C21.9048 51.8134 22.0783 51.6402 22.2916 51.6402ZM45.6743 41.9529C46.4044 41.9529 46.9986 41.3592 46.9986 40.6293C46.9986 39.8994 46.4044 39.3057 45.6743 39.3057C44.9442 39.3057 44.3505 39.8994 44.3505 40.6293C44.3505 41.3592 44.9442 41.9529 45.6743 41.9529ZM45.6743 40.2432C45.8876 40.2432 46.0611 40.4164 46.0611 40.6293C46.0611 40.8421 45.8876 41.0154 45.6743 41.0154C45.4615 41.0154 45.288 40.8421 45.288 40.6293C45.288 40.4164 45.4615 40.2432 45.6743 40.2432Z" fill="#EF6A1F"/>
<path d="M55.2655 20.3849C55.0348 20.141 54.7263 20.0103 54.394 20.018C54.0539 20.0254 53.7256 20.1833 53.5132 20.4296L48.6972 25.315L46.1887 18.816C46.0957 18.4793 45.8696 18.1989 45.5675 18.0467C45.2736 17.8984 44.9262 17.8826 44.6131 18.003C43.985 18.2504 43.6417 18.9709 43.8312 19.6434L43.9671 20.1188L40.7629 24.7636L37.3924 19.5722C37.2377 19.2774 36.9699 19.0616 36.6572 18.9803C36.3528 18.9013 36.0232 18.9549 35.7504 19.1341C35.2153 19.4967 35.0473 20.2412 35.3677 20.8292L39.2869 28.0143C38.4927 28.3873 37.6844 29.1956 37.4384 30.9057C37.4233 30.9518 37.4093 30.9988 37.4093 31.05C37.4093 31.0612 37.4149 31.0706 37.4157 31.0817C37.4153 31.0853 37.415 31.0891 37.4146 31.0927C36.3324 30.3246 35.0446 29.9033 33.6978 29.9033C32.4876 29.9033 31.3096 30.2494 30.2939 30.8817V30.5772C30.2939 29.5584 29.8989 28.6028 29.1816 27.8862C28.4601 27.1657 27.5039 26.7691 26.489 26.7691C24.5101 26.7691 22.8797 28.2848 22.6965 30.2154C22.2296 29.9145 21.6621 29.7748 21.0847 29.863L20.2773 29.9882C19.6575 30.0809 19.1113 30.4087 18.7401 30.9109C18.3689 31.4128 18.216 32.0294 18.3094 32.6474L19.0148 37.3112H18.5845C18.3254 37.3112 18.1157 37.5211 18.1157 37.78V43.4786V49.177V54.8756C18.1157 55.1345 18.3254 55.3444 18.5845 55.3444H49.3815C49.6406 55.3444 49.8503 55.1345 49.8503 54.8756V49.177V43.4786V37.78C49.8503 37.5211 49.6406 37.3112 49.3815 37.3112H49.3712C49.4952 36.957 49.6151 36.6081 49.7235 36.2754C49.7235 36.2754 49.7235 36.2754 49.7235 36.2754C49.7236 36.275 49.7237 36.2747 49.7238 36.2744C49.724 36.2738 49.7242 36.2732 49.7244 36.2726C49.7244 36.2726 49.7244 36.2726 49.7244 36.2726C50.1029 35.1318 50.3795 34.189 50.5232 33.5459C50.6121 33.1507 50.6722 32.7713 50.7034 32.4175C50.7035 32.4169 50.7039 32.4164 50.704 32.4157C50.8834 30.4915 50.2 29.4411 49.4411 28.8703L55.2719 22.207C55.2719 22.2066 55.2724 22.2064 55.2724 22.2061C55.7297 21.6811 55.7279 20.8825 55.2655 20.3849ZM19.0532 43.9473H48.9128V48.7083H19.0532V43.9473ZM48.9128 38.2487V43.0099H19.0532V38.2487H19.5595H23.7745H27.5785H27.8806H38.3857H43.0054H48.7086H48.9128ZM24.9729 33.0806C25.3456 33.0246 25.715 33.1166 26.0175 33.3388C26.3201 33.5613 26.5174 33.8883 26.5728 34.26L27.0334 37.3112H24.1782L23.7819 34.6805C23.7366 34.3724 23.7932 34.0627 23.9447 33.7849C24.1539 33.4107 24.5147 33.1568 24.9368 33.0848C24.9491 33.0838 24.961 33.0825 24.9729 33.0806ZM42.6747 36.1509C42.6718 36.1817 42.6691 36.215 42.6661 36.246C42.6376 36.5442 42.6104 36.8552 42.584 37.1742C42.5801 37.2213 42.5757 37.2637 42.5719 37.3112H38.7917C38.7849 37.2637 38.7779 37.2166 38.7711 37.1689C38.7305 36.8824 38.691 36.5927 38.6537 36.3005C38.6495 36.2682 38.645 36.2364 38.6409 36.2041C38.5992 35.8738 38.5604 35.5421 38.5238 35.2122C38.5204 35.1815 38.5173 35.151 38.5139 35.1204H42.7839C42.7794 35.159 42.7754 35.2032 42.7709 35.2423C42.7378 35.5337 42.7055 35.8338 42.6747 36.1509ZM43.3707 31.5526C43.3377 31.6728 43.308 31.7971 43.2778 31.9275C43.249 32.0551 43.22 32.1978 43.1909 32.349C43.1875 32.3663 43.1842 32.3826 43.1808 32.4003C43.1528 32.5482 43.1245 32.7075 43.0963 32.8756C43.092 32.9009 43.0877 32.9263 43.0835 32.9521C43.0553 33.1225 43.027 33.3012 42.9989 33.4899C42.9953 33.5138 42.9918 33.5387 42.9882 33.5629C42.9591 33.7612 42.9299 33.9665 42.901 34.1829H38.4194C38.4136 34.1206 38.4073 34.0564 38.402 33.9953C38.394 33.9039 38.3864 33.8137 38.3793 33.7253C38.3684 33.5897 38.3589 33.4592 38.3501 33.3313C38.3443 33.2481 38.3383 33.164 38.3335 33.0843C38.3255 32.9507 38.3195 32.8256 38.314 32.7028C38.3112 32.6418 38.3076 32.5768 38.3055 32.5186C38.2993 32.3428 38.2955 32.1776 38.2955 32.0303C38.2955 31.8561 38.3015 31.6849 38.3129 31.5188H43.3684C43.3693 31.53 43.3698 31.5412 43.3707 31.5526ZM49.6086 33.3411C49.4882 33.879 49.2675 34.6466 48.9659 35.5772L47.3059 35.2065L43.8148 34.4266C43.8155 34.4214 43.8162 34.4161 43.8169 34.4109C43.8455 34.1934 43.8746 33.9844 43.9038 33.7836C43.9074 33.7583 43.9111 33.7331 43.9147 33.7081C43.9431 33.5154 43.9716 33.3314 44.0001 33.1577C44.004 33.1338 44.0079 33.1107 44.0118 33.0871C44.0405 32.9142 44.0691 32.7504 44.0974 32.6004C44.0999 32.5867 44.1024 32.5742 44.1051 32.5607C44.1345 32.406 44.1636 32.2622 44.1919 32.136C44.224 31.9964 44.256 31.8625 44.2977 31.7197C44.3141 31.6554 44.3315 31.5925 44.3498 31.5311L49.7216 32.7371C49.6928 32.9314 49.6548 33.1333 49.6086 33.3411ZM46.2644 28.155C45.5026 28.3137 44.6568 28.7829 44.0135 29.9229C43.6516 28.8713 43.0207 28.3125 42.4002 28.0203L44.9095 23.4152L46.2644 28.155ZM36.27 19.9144C36.3299 19.875 36.3853 19.8782 36.4215 19.8876C36.4796 19.9027 36.5295 19.9453 36.584 20.0451L40.3577 25.8613C40.4429 25.9925 40.588 26.0726 40.7441 26.0749C40.8956 26.0703 41.048 26.0014 41.1368 25.8723L44.3004 21.2865L44.3504 21.4594L44.5422 22.1305L41.4824 27.7457C41.4663 27.7432 41.4482 27.7442 41.4319 27.7419C41.2426 27.7151 41.0479 27.699 40.8493 27.6987C40.8454 27.6987 40.8418 27.6979 40.8379 27.6979C40.8117 27.6979 40.7868 27.703 40.7606 27.7035C40.5981 27.7065 40.436 27.7175 40.2747 27.7387C40.2526 27.7417 40.2291 27.7404 40.2071 27.7436L36.1908 20.3801C36.102 20.2169 36.1409 20.0018 36.27 19.9144ZM40.0712 28.7246C40.4471 28.6321 40.8637 28.6113 41.2434 28.6584C41.3705 28.6743 41.4938 28.6977 41.6106 28.7287C42.4534 28.9462 42.9866 29.5541 43.2315 30.5813H38.4498C38.6952 29.5504 39.2298 28.9407 40.0712 28.7246ZM37.3594 32.2365C37.3595 32.2453 37.3602 32.2565 37.3603 32.2654C37.3627 32.3997 37.3675 32.5457 37.3742 32.7005C37.3756 32.7322 37.3769 32.7637 37.3784 32.7962C37.3859 32.9526 37.3952 33.1173 37.4067 33.2906C37.4091 33.3276 37.4118 33.3654 37.4144 33.4031C37.4268 33.5824 37.4409 33.768 37.4573 33.9618C37.4598 33.9915 37.4626 34.0221 37.4652 34.052C37.483 34.2573 37.5025 34.4681 37.5244 34.6861C37.5248 34.6905 37.5251 34.6946 37.5256 34.699C37.5651 35.0883 37.61 35.4835 37.6573 35.8788C37.6661 35.9516 37.6744 36.0232 37.6833 36.096C37.7305 36.4801 37.7807 36.8614 37.8336 37.2377C37.837 37.2619 37.8398 37.2871 37.8433 37.3112H28.2702C28.259 37.247 28.2441 37.1842 28.2351 37.1191C28.2275 37.064 28.2195 37.0091 28.2135 36.9535C28.1925 36.7568 28.1782 36.5578 28.1782 36.3554C28.1782 36.1526 28.1893 35.9512 28.2111 35.752C28.3641 34.3577 29.0437 33.0707 30.1291 32.1534C31.1229 31.307 32.3905 30.8408 33.6978 30.8408C35.0564 30.8408 36.3491 31.335 37.3594 32.2365ZM23.6157 30.5772C23.6157 28.9942 24.9047 27.7065 26.489 27.7065C27.2539 27.7065 27.9745 28.0059 28.5187 28.5495C29.0589 29.089 29.3564 29.809 29.3564 30.5772V31.584C29.311 31.6251 29.2736 31.6729 29.2295 31.7151C29.1033 31.8361 28.9819 31.9603 28.8667 32.0901C28.8022 32.1627 28.7394 32.2359 28.6785 32.3111C28.5683 32.4471 28.4657 32.5879 28.3675 32.7318C28.3179 32.8044 28.2659 32.8752 28.2194 32.9497C28.1015 33.1385 27.9947 33.3332 27.8972 33.5328C27.881 33.566 27.8608 33.5972 27.8452 33.6307C27.7357 33.8651 27.6428 34.1068 27.5622 34.3533C27.5568 34.3701 27.5482 34.3858 27.5429 34.4027L27.5002 34.1204C27.4073 33.5009 27.0777 32.955 26.5728 32.5835C26.4591 32.4999 26.3385 32.4302 26.2144 32.3691C26.1734 32.3488 26.1307 32.334 26.0887 32.3163C26.0024 32.28 25.9155 32.2473 25.826 32.2216C25.7772 32.2077 25.7284 32.1966 25.6788 32.1859C25.5893 32.1665 25.4991 32.153 25.4076 32.1443C25.3601 32.1399 25.3132 32.1346 25.2652 32.133C25.2391 32.1322 25.2137 32.1269 25.1876 32.1269C25.0805 32.1269 24.9725 32.1344 24.864 32.1493C24.8498 32.15 24.8356 32.1516 24.8214 32.1537C24.732 32.1673 24.6443 32.1859 24.5584 32.209C24.5299 32.2167 24.5028 32.2278 24.4748 32.2366C24.4184 32.2541 24.3615 32.2709 24.307 32.2924C24.275 32.305 24.2449 32.3212 24.2135 32.3352C24.1647 32.357 24.1152 32.3777 24.0681 32.4028C24.0383 32.4187 24.0105 32.4377 23.9814 32.4548C23.9386 32.4801 23.8948 32.5037 23.8537 32.5315L23.7457 31.8197C23.7202 31.6711 23.679 31.5288 23.63 31.3898C23.624 31.3726 23.6221 31.3533 23.6157 31.3363V30.5772ZM19.2363 32.5075C19.1805 32.1376 19.272 31.7687 19.494 31.4684C19.7165 31.1674 20.0438 30.9711 20.4187 30.915L21.2276 30.7896C21.8519 30.6943 22.464 31.0331 22.7153 31.6092C22.7633 31.7227 22.799 31.847 22.8206 31.9692L23.049 33.48C23.0311 33.5186 23.0199 33.559 23.0041 33.5982C22.9854 33.6452 22.9662 33.6918 22.9506 33.7396C22.9272 33.8104 22.9097 33.8823 22.8932 33.9546C22.8829 34.0002 22.8706 34.0452 22.863 34.0913C22.8496 34.1725 22.8437 34.2545 22.839 34.3369C22.8367 34.3754 22.831 34.4134 22.8307 34.4521C22.8297 34.5737 22.8365 34.6959 22.8544 34.8183L23.2297 37.3112H19.9628L19.2363 32.5075ZM48.9128 54.4069H19.0532V49.6458H48.9128V54.4069ZM43.5133 37.3112C43.5157 37.2819 43.518 37.2518 43.5204 37.2226C43.5453 36.9215 43.5711 36.6284 43.598 36.3463C43.5999 36.3268 43.6016 36.3058 43.6035 36.2863C43.6324 35.9867 43.6624 35.7004 43.6933 35.4241C43.6957 35.4028 43.6982 35.383 43.7006 35.3618L48.6702 36.4719C48.5772 36.7457 48.4797 37.0265 48.3786 37.3112H43.5133ZM44.689 30.6463C45.1921 29.5838 45.9126 29.0512 46.8831 29.0226C47.1518 29.0132 47.4196 29.0411 47.7221 29.1096C48.0028 29.1686 48.2664 29.2629 48.5141 29.3943C49.36 29.8212 49.7894 30.6268 49.7953 31.7927L44.689 30.6463ZM54.5656 21.5902L48.6042 28.4026C48.5704 28.3887 48.5349 28.3785 48.5006 28.3656C48.4641 28.3519 48.4277 28.3391 48.3908 28.3264C48.2378 28.274 48.0823 28.2274 47.9226 28.1938C47.7552 28.1557 47.5936 28.1312 47.4341 28.1128C47.399 28.1088 47.3634 28.1048 47.3285 28.1017C47.293 28.0985 47.2566 28.0926 47.2214 28.0904L45.4974 22.0532L44.7339 19.3891C44.6739 19.1776 44.7742 18.9473 44.9532 18.8766C45.0369 18.8444 45.1042 18.8627 45.1454 18.8839C45.2127 18.9176 45.2622 18.9819 45.2997 19.1094L48.0842 26.3298C48.1415 26.4784 48.2701 26.5876 48.4257 26.6201C48.5836 26.6528 48.7439 26.6036 48.8551 26.4903L54.2013 21.0659C54.2617 20.9963 54.3372 20.9569 54.4141 20.9553C54.4571 20.9514 54.5244 20.9661 54.5817 21.0263C54.7167 21.1716 54.7094 21.4245 54.5656 21.5902Z" fill="#EF6A1F"/>
<path d="M35.4734 32.9911C35.6107 33.0641 35.7434 33.1456 35.8689 33.2335C35.9503 33.2907 36.0442 33.3182 36.1371 33.3182C36.285 33.3182 36.4305 33.2486 36.5216 33.1184C36.6699 32.9062 36.6187 32.6139 36.4063 32.4654C36.2502 32.3562 36.0849 32.2546 35.9146 32.1639C35.6844 32.0417 35.4024 32.1287 35.2802 32.3571C35.1584 32.5855 35.2449 32.8693 35.4734 32.9911ZM29.3985 36.538C29.409 36.539 29.4195 36.5392 29.43 36.5392C29.6745 36.5392 29.8809 36.3494 29.8974 36.1018C29.9665 35.0675 30.4408 34.1291 31.2341 33.4587C31.9871 32.8174 32.9818 32.4947 33.9522 32.5587C34.2168 32.5757 34.4342 32.3795 34.4507 32.1214C34.4677 31.8632 34.2717 31.64 34.0136 31.6231C32.7895 31.5427 31.5636 31.9465 30.6275 32.7439C29.6539 33.5665 29.0469 34.7677 28.9618 36.0391C28.9448 36.2975 29.1398 36.5209 29.3985 36.538ZM22.1319 32.5812L22.0569 32.0854C22.0107 31.77 21.747 31.5498 21.4161 31.5498C21.3785 31.5498 21.3785 31.5498 20.5308 31.6773L20.6699 32.6043C20.6699 32.6043 20.9455 32.5629 21.1757 32.5285L21.2046 32.7212C21.2046 32.7212 21.2046 32.7213 21.2046 32.7212L21.2906 33.2912C21.3259 33.5235 21.5259 33.6899 21.7539 33.6899C21.7772 33.6899 21.8006 33.6883 21.8244 33.6846C22.0803 33.6459 22.2565 33.407 22.2181 33.1511L22.1319 32.5812C22.1319 32.5813 22.1319 32.5812 22.1319 32.5812ZM24.9088 34.7006L25.1262 36.1405C25.1614 36.3728 25.3615 36.5392 25.5894 36.5392C25.6128 36.5392 25.6361 36.5376 25.6599 36.5339C25.9158 36.4952 26.0921 36.2563 26.0536 36.0004L25.8078 34.3758C25.7616 34.0595 25.497 33.8386 25.1642 33.8386C24.9051 33.8386 24.6954 34.0485 24.6954 34.3074C24.6954 34.4722 24.7806 34.6168 24.9088 34.7006ZM26.4889 29.416C26.7966 29.416 27.0881 29.5378 27.3092 29.7584C27.5262 29.9752 27.6457 30.2658 27.6457 30.5771C27.6457 30.836 27.8554 31.0459 28.1144 31.0459C28.3735 31.0459 28.5832 30.836 28.5832 30.5771C28.5832 30.0152 28.3662 29.489 27.9716 29.0949C27.5734 28.6973 27.0469 28.4785 26.4889 28.4785C26.2299 28.4785 26.0202 28.6884 26.0202 28.9473C26.0202 29.2061 26.2299 29.416 26.4889 29.416Z" fill="#EF6A1F"/>
</svg>
