<svg width="60" height="60" viewBox="0 0 60 60" fill="none" xmlns="http://www.w3.org/2000/svg">
<rect width="60" height="60" rx="16.3636" fill="#EFEFEF"/>
<g clip-path="url(#clip0_327_1599)">
<path d="M29.3194 16.3638C22.924 16.3638 17.7285 21.5592 17.7285 27.9547C17.7285 34.3501 22.924 39.5456 29.3194 39.5456H30.0012V43.6365C36.6285 40.4456 40.9103 34.091 40.9103 27.9547C40.9103 21.5592 35.7149 16.3638 29.3194 16.3638ZM30.6831 36.1365H27.9558V33.4092H30.6831V36.1365ZM30.6831 31.3638H27.9558C27.9558 26.932 32.0467 27.2729 32.0467 24.5456C32.0467 23.0456 30.8194 21.8183 29.3194 21.8183C27.8194 21.8183 26.5922 23.0456 26.5922 24.5456H23.8649C23.8649 21.532 26.3058 19.091 29.3194 19.091C32.3331 19.091 34.774 21.532 34.774 24.5456C34.774 27.9547 30.6831 28.2956 30.6831 31.3638Z" fill="#434343"/>
</g>
<defs>
<clipPath id="clip0_327_1599">
<rect width="32.7273" height="32.7273" fill="white" transform="translate(13.6367 13.6365)"/>
</clipPath>
</defs>
</svg>