<svg width="73" height="73" viewBox="0 0 73 73" fill="none" xmlns="http://www.w3.org/2000/svg">
<rect x="0.5" y="0.633789" width="72" height="72" rx="36" fill="#F8F8F8"/>
<path fill-rule="evenodd" clip-rule="evenodd" d="M44.57 46.4725L53.1162 55.0175C53.6037 55.505 54.3963 55.505 54.8838 55.0175C55.3713 54.53 55.3713 53.7375 54.8838 53.25L46.3388 44.7038C48.7763 41.8625 50.25 38.1688 50.25 34.1338C50.25 25.165 42.9688 17.8838 34 17.8838C25.0312 17.8838 17.75 25.165 17.75 34.1338C17.75 43.1025 25.0312 50.3838 34 50.3838C38.035 50.3838 41.7287 48.91 44.57 46.4725ZM34 20.3838C41.5888 20.3838 47.75 26.545 47.75 34.1338C47.75 41.7225 41.5888 47.8838 34 47.8838C26.4113 47.8838 20.25 41.7225 20.25 34.1338C20.25 26.545 26.4113 20.3838 34 20.3838Z" fill="#EF6A1F"/>
<path d="M26.8125 35.6963C27.6754 35.6963 28.375 34.9967 28.375 34.1338C28.375 33.2708 27.6754 32.5713 26.8125 32.5713C25.9496 32.5713 25.25 33.2708 25.25 34.1338C25.25 34.9967 25.9496 35.6963 26.8125 35.6963Z" fill="#EF6A1F"/>
<path d="M33.6875 35.6963C34.5504 35.6963 35.25 34.9967 35.25 34.1338C35.25 33.2708 34.5504 32.5713 33.6875 32.5713C32.8246 32.5713 32.125 33.2708 32.125 34.1338C32.125 34.9967 32.8246 35.6963 33.6875 35.6963Z" fill="#EF6A1F"/>
<path d="M40.5625 35.6963C41.4254 35.6963 42.125 34.9967 42.125 34.1338C42.125 33.2708 41.4254 32.5713 40.5625 32.5713C39.6996 32.5713 39 33.2708 39 34.1338C39 34.9967 39.6996 35.6963 40.5625 35.6963Z" fill="#EF6A1F"/>
</svg>