<svg width="25" height="26" viewBox="0 0 25 26" fill="none" xmlns="http://www.w3.org/2000/svg">
<path opacity="0.1" fill-rule="evenodd" clip-rule="evenodd" d="M0.078125 13.1788C0.078125 6.41139 5.56422 0.925293 12.3317 0.925293C19.0991 0.925293 24.5852 6.41139 24.5852 13.1788C24.5852 19.9463 19.0991 25.4324 12.3317 25.4324C5.56422 25.4324 0.078125 19.9463 0.078125 13.1788Z" fill="#434343"/>
<path fill-rule="evenodd" clip-rule="evenodd" d="M11.9649 10.885L11.9906 11.309L11.562 11.2571C10.0021 11.0581 8.63927 10.3832 7.48217 9.24962L6.91648 8.68717L6.77077 9.10252C6.46221 10.0284 6.65935 11.0062 7.30218 11.6638C7.64502 12.0273 7.56788 12.0792 6.97648 11.8628C6.77077 11.7936 6.59078 11.7417 6.57364 11.7677C6.51364 11.8282 6.71934 12.6157 6.88219 12.9272C7.10504 13.3598 7.55931 13.7838 8.05643 14.0348L8.47642 14.2338L7.97929 14.2424C7.49931 14.2424 7.48217 14.2511 7.5336 14.4328C7.70502 14.9953 8.38214 15.5923 9.13639 15.8519L9.6678 16.0336L9.20496 16.3105C8.51927 16.7086 7.71359 16.9335 6.90791 16.9508C6.52221 16.9595 6.20508 16.9941 6.20508 17.0201C6.20508 17.1066 7.25075 17.5912 7.8593 17.7815C9.68494 18.344 11.8534 18.1017 13.4819 17.1412C14.639 16.4576 15.7961 15.0991 16.3361 13.7838C16.6275 13.0829 16.9189 11.8023 16.9189 11.1879C16.9189 10.7899 16.9447 10.7379 17.4246 10.262C17.7075 9.98513 17.9732 9.68227 18.0246 9.59574C18.1103 9.43134 18.1018 9.43134 17.6646 9.57844C16.9361 9.83803 16.8332 9.80342 17.1932 9.41403C17.4589 9.13713 17.7761 8.63525 17.7761 8.48815C17.7761 8.46219 17.6475 8.50546 17.5018 8.58334C17.3475 8.66987 17.0047 8.79966 16.7475 8.87754L16.2847 9.02464L15.8647 8.73909C15.6333 8.58334 15.3076 8.41027 15.1362 8.35836C14.699 8.23721 14.0305 8.25452 13.6362 8.39297C12.5648 8.78236 11.8877 9.78611 11.9649 10.885Z" fill="#434343"/>
</svg>
