<svg width="26" height="26" viewBox="0 0 26 26" fill="none" xmlns="http://www.w3.org/2000/svg">
<path opacity="0.1" fill-rule="evenodd" clip-rule="evenodd" d="M0.965332 13.1788C0.965332 6.41139 6.45143 0.925293 13.2189 0.925293C19.9863 0.925293 25.4724 6.41139 25.4724 13.1788C25.4724 19.9463 19.9863 25.4324 13.2189 25.4324C6.45143 25.4324 0.965332 19.9463 0.965332 13.1788Z" fill="#434343"/>
<path fill-rule="evenodd" clip-rule="evenodd" d="M18.3253 8.9665C18.8877 9.12083 19.3306 9.57555 19.4809 10.153C19.754 11.1996 19.754 13.3832 19.754 13.3832C19.754 13.3832 19.754 15.5668 19.4809 16.6134C19.3306 17.1909 18.8877 17.6456 18.3253 17.8C17.3061 18.0804 13.2188 18.0804 13.2188 18.0804C13.2188 18.0804 9.13155 18.0804 8.11228 17.8C7.54988 17.6456 7.10697 17.1909 6.95666 16.6134C6.68359 15.5668 6.68359 13.3832 6.68359 13.3832C6.68359 13.3832 6.68359 11.1996 6.95666 10.153C7.10697 9.57555 7.54988 9.12083 8.11228 8.9665C9.13155 8.68604 13.2188 8.68604 13.2188 8.68604C13.2188 8.68604 17.3061 8.68604 18.3253 8.9665ZM11.9935 11.5451V15.6297L15.2611 13.5875L11.9935 11.5451Z" fill="#434343"/>
</svg>
